<svg width="390" height="747" viewBox="0 0 390 747" fill="none" xmlns="http://www.w3.org/2000/svg">
<g clip-path="url(#clip0_996_2924)">
<path d="M575.083 392.911H573.357C530.46 395.461 515.299 407.237 479.798 417.193L478.073 417.557H474.005C462.911 417.921 452.187 415.007 441.463 412.822L439.121 412.458L436.039 411.729L433.327 411.365H432.957L432.588 411.001L419.891 406.266L407.195 400.924L402.757 399.224L397.95 396.917L393.143 394.854L385.993 391.454L378.844 388.419H380.939C454.529 384.655 525.037 378.342 598.873 380.649L604.297 381.013L586.423 391.818L580.999 392.183L575.083 392.911Z" stroke="#FFF3CF" stroke-opacity="0.4" stroke-width="0.75" stroke-miterlimit="10" stroke-linecap="round" stroke-linejoin="round"/>
<path d="M328.096 265.36L333.908 266.112L339.35 267.115C363.837 271.754 386.468 282.789 410.584 288.682L414.047 289.058L417.51 289.81C431.732 291.691 449.293 287.679 463.639 284.544L484.663 280.657L505.316 276.77L521.764 281.284L538.212 286.174L549.219 289.309L560.597 292.82L564.059 293.823L567.522 295.202L574.448 297.334L575.19 297.71H575.561L581.002 299.465" stroke="#FFF3CF" stroke-opacity="0.4" stroke-width="0.75" stroke-miterlimit="10" stroke-linecap="round" stroke-linejoin="round"/>
<path d="M323.104 264.528L328.096 265.36" stroke="#FFF3CF" stroke-opacity="0.4" stroke-width="0.75" stroke-miterlimit="10" stroke-linecap="round" stroke-linejoin="round"/>
<path d="M317.281 264.528H323.105" stroke="#FFF3CF" stroke-opacity="0.4" stroke-width="0.75" stroke-miterlimit="10" stroke-linecap="round" stroke-linejoin="round"/>
<path d="M321.441 285.324L311.378 279.873C300.196 274.05 289.388 267.36 277.586 263.023L274.853 262.032H277.213C288.518 262.652 299.824 263.147 311.005 263.767L316.844 264.138" stroke="#FFF3CF" stroke-opacity="0.4" stroke-width="0.75" stroke-miterlimit="10" stroke-linecap="round" stroke-linejoin="round"/>
<path d="M575.179 324.677L560.733 325.047H546.286C493.686 325.664 440.346 324.8 387.746 323.69H377.127C365.397 314.068 353.914 305.432 341.073 297.29L331.442 291.122L321.44 285.324" stroke="#FFF3CF" stroke-opacity="0.4" stroke-width="0.75" stroke-miterlimit="10" stroke-linecap="round" stroke-linejoin="round"/>
<path d="M338.079 489.566L356.6 488.209L375.492 487.223L391.297 486.236L407.102 485.496L424.265 484.51L441.798 483.77L482.298 482.044L522.798 480.317L550.95 479.331L562.927 478.591L575.274 477.851L577.003 477.481H578.732L580.09 478.221L581.078 478.961L583.794 480.687C589.968 484.88 594.413 488.703 599.969 493.758L602.686 496.471L608.489 502.637L617.379 511.516L620.096 514.599C638.37 531.369 653.804 541.851 678.499 545.427L682.945 546.167L687.019 546.907C716.653 549.496 737.397 554.552 764.314 569.227L768.76 571.57L775.674 575.639" stroke="#FFF3CF" stroke-opacity="0.4" stroke-width="0.75" stroke-miterlimit="10" stroke-linecap="round" stroke-linejoin="round"/>
<path d="M320.589 535.71L309.797 532.66L299.128 529.976L287.716 526.56L276.056 523.51L261.542 520.216L262.286 514.726L262.907 509.601L263.279 503.867L262.907 498.499V496.791L262.534 495.083L300.493 492.399L338.08 489.959" stroke="#FFF3CF" stroke-opacity="0.4" stroke-width="0.75" stroke-miterlimit="10" stroke-linecap="round" stroke-linejoin="round"/>
<path d="M775.674 603.922L767.405 600.455L759.135 597.359C670.516 568.011 579.676 542.378 486.367 533.957L481.554 533.586L471.927 532.843L462.299 532.471C435.023 531.604 417.126 537.3 391.207 542.749L384.295 544.111C367.263 546.464 354.056 542.254 336.654 539.653L331.223 538.291L326.039 537.3L320.608 535.938" stroke="#FFF3CF" stroke-opacity="0.4" stroke-width="0.75" stroke-miterlimit="10" stroke-linecap="round" stroke-linejoin="round"/>
<path d="M317.281 693.762L338.482 690.695L359.683 687.997C392.716 684.317 425.75 681.864 458.66 678.061L467.904 676.712L477.518 675.363L486.393 673.646L495.638 671.928L510.675 668.494L526.083 664.692L541.12 660.644L574.031 651.812H574.77L581.919 649.727L588.822 648.01L591.164 650.095C622.348 675.486 644.288 667.513 676.089 679.043L679.171 680.024L677.445 680.392L675.72 680.76L673.008 681.496L652.054 685.298" stroke="#FFF3CF" stroke-opacity="0.4" stroke-width="0.75" stroke-miterlimit="10" stroke-linecap="round" stroke-linejoin="round"/>
<path d="M81.7725 650.615L110.569 652.352C127.06 654.337 129.767 648.506 138.628 661.657L139.982 663.022L140.966 664.759C145.273 672.327 148.719 679.771 153.272 687.215L156.718 692.053L152.903 692.425H149.088C112.784 693.914 76.4808 694.535 40.3001 696.271L34.5161 696.644L24.3018 697.016L14.3336 697.388C-0.0648175 697.76 -14.3402 698.629 -28.7386 698.753L-30.4615 698.008L-31.8152 697.016L-37.23 694.286L-39.9374 693.294L-43.014 691.929L-45.7214 690.937L-46.0906 690.564H-46.829L-47.1982 690.192L-47.9365 689.82L-46.5829 689.076L-45.5984 688.331L-44.2446 687.587L-43.2601 686.594L-40.5527 685.23L-35.7533 681.756L-33.6612 680.019L-30.9538 677.91L-19.0166 667.612L-16.6784 665.255L-14.3402 663.146L-12.2481 661.037L-10.156 658.68L-7.81782 656.571L-5.72573 654.213L-4.37206 652.849L-3.01831 651.112L-1.29547 649.747L0.0582759 648.01H10.2725L14.0875 648.382H17.9025C37.2235 648.754 57.4059 649.871 76.7269 650.739H81.7725V650.615Z" stroke="#FFF3CF" stroke-opacity="0.4" stroke-width="0.75" stroke-miterlimit="10" stroke-linecap="round" stroke-linejoin="round"/>
<path d="M318.113 322.523H307.864C246.615 324.381 184.132 314.724 122.761 309.4L118.686 308.657L112.512 307.296C93.7419 301.105 75.4662 286.868 54.1034 281.173L32.1232 273.621C-20.3576 257.898 -76.5429 241.927 -127.542 221.252L-132.728 219.519L-134.457 218.776L-129.641 219.767C-31.5947 236.356 67.8102 245.146 166.968 253.194L174.13 253.936" stroke="#FFF3CF" stroke-opacity="0.4" stroke-width="0.75" stroke-miterlimit="10" stroke-linecap="round" stroke-linejoin="round"/>
<path d="M174.189 254.546L181.709 255.28L188.859 255.647C209.075 261.646 228.182 263.727 248.521 268.256L250.863 268.991L252.959 269.725C283.16 278.784 315.703 298.616 342.083 315.387L353.054 323.589L349.973 323.222C341.714 323.099 333.454 323.467 325.319 322.855L317.799 322.487" stroke="#FFF3CF" stroke-opacity="0.4" stroke-width="0.75" stroke-miterlimit="10" stroke-linecap="round" stroke-linejoin="round"/>
<path d="M313.953 457.457L291.611 459.18L287.167 457.457L282.723 456.104C268.034 451.057 251.986 444.165 237.05 440.719L226.064 438.011C205.326 434.073 185.822 432.35 164.961 430.873L159.159 430.504L153.357 429.765L146.198 429.027L139.285 428.288C120.769 425.827 102.13 424.596 83.7369 422.135L79.6634 421.396L75.2195 420.658C63.1224 418.319 55.2221 415.242 45.3469 407.612L41.8906 404.904L38.8046 402.196L36.0889 399.858L44.9766 399.489C87.4401 398.012 127.188 405.027 169.528 408.719L174.342 409.088" stroke="#FFF3CF" stroke-opacity="0.4" stroke-width="0.75" stroke-miterlimit="10" stroke-linecap="round" stroke-linejoin="round"/>
<path d="M316.912 422.579L324.801 423.317L332.69 423.686C351.674 424.917 370.904 425.286 389.888 426.024L399.133 426.762L407.762 427.5C435.991 429.714 444.25 434.143 472.232 443.246L480.861 445.953L489.49 448.29L485.669 448.659C435.991 450.259 385.82 452.227 336.265 456.164L313.953 457.517" stroke="#FFF3CF" stroke-opacity="0.4" stroke-width="0.75" stroke-miterlimit="10" stroke-linecap="round" stroke-linejoin="round"/>
<path d="M174.189 409.27L184.207 410.255C223.412 413.46 262.37 417.526 301.451 421.224L317.281 422.579" stroke="#FFF3CF" stroke-opacity="0.4" stroke-width="0.75" stroke-miterlimit="10" stroke-linecap="round" stroke-linejoin="round"/>
<path d="M174.162 499.99H177.624L180.714 499.618L214.712 497.886L248.709 495.782V497.514C251.058 517.068 241.291 539.592 232.514 556.671L229.794 561.498L227.074 560.508L223.983 559.518C200 551.968 173.544 551.102 148.695 547.142L134.602 545.409L120.509 543.305L107.775 541.944L95.4126 540.583L89.6022 540.211L84.1626 539.469L83.4209 538.479L83.05 537.117L82.061 535.013L81.3192 532.909L79.9594 528.454C77.9813 522.266 78.3522 517.192 79.2176 510.88L80.5775 505.435L81.3192 503.084L87.1296 502.712H92.9401L114.327 501.97L135.962 501.227L155.247 500.485L174.162 499.99Z" stroke="#FFF3CF" stroke-opacity="0.4" stroke-width="0.75" stroke-miterlimit="10" stroke-linecap="round" stroke-linejoin="round"/>
<path d="M318.113 346.42H325.64C429.661 348.274 535.039 351.24 638.813 346.791L660.036 346.049L642.515 356.678L625.363 367.677L618.206 366.936C603.892 366.071 589.949 366.071 575.635 365.576H574.895" stroke="#FFF3CF" stroke-opacity="0.4" stroke-width="0.75" stroke-miterlimit="10" stroke-linecap="round" stroke-linejoin="round"/>
<path d="M575.179 365.574H559.36C479.642 365.201 399.677 376.244 319.835 374.879H316.004H313.656C306.24 374.755 298.701 375.499 291.285 375.623L278.803 375.996L267.679 373.886C242.59 365.946 220.219 351.553 195.501 342.496L188.332 339.394L202.792 340.759C242.466 345.474 274.724 346.839 314.15 345.97L317.982 346.342" stroke="#FFF3CF" stroke-opacity="0.4" stroke-width="0.75" stroke-miterlimit="10" stroke-linecap="round" stroke-linejoin="round"/>
<path d="M318.945 52.9627L315.487 53.9507C289.182 65.1885 213.352 80.5017 233.729 124.712L235.088 126.441L229.654 125.7C170.003 116.068 111.957 98.9021 53.1703 85.5649L47.7363 84.2064L48.1068 82.848L48.4773 81.8601C50.5768 69.2638 57.8634 58.1494 67.0025 49.6284L75.2771 46.1706L83.5517 43.0833C112.328 32.8334 142.956 29.993 172.473 23.2009L174.572 22.46" stroke="#FFF3CF" stroke-opacity="0.4" stroke-width="0.75" stroke-miterlimit="10" stroke-linecap="round" stroke-linejoin="round"/>
<path d="M318.945 27.4509L323.978 29.5485L328.765 31.8928L333.184 34.3604L337.357 37.0749L339.321 38.8023L341.407 40.1595L342.758 41.5167L344.476 42.874L346.194 44.6013L347.913 46.6989L348.649 47.069L348.895 47.3158L340.425 48.4263L331.833 50.1536L325.328 51.5109L318.945 53.2382" stroke="#FFF3CF" stroke-opacity="0.4" stroke-width="0.75" stroke-miterlimit="10" stroke-linecap="round" stroke-linejoin="round"/>
<path d="M174.189 22.7575L183.832 20.6011L193.103 18.4446C217.95 15.9076 242.797 16.2881 267.644 18.064L281.366 19.4594C291.502 21.2353 301.762 22.377 311.652 25.4214L315.484 26.4362L318.945 27.451" stroke="#FFF3CF" stroke-opacity="0.4" stroke-width="0.75" stroke-miterlimit="10" stroke-linecap="round" stroke-linejoin="round"/>
<path d="M173.9 445.966L175.259 446.338C203.191 447.95 227.416 451.3 253.617 461.223L255.718 461.968H254.977C215.798 464.697 176.742 467.054 137.44 468.17L100.979 469.162L102.339 467.426C108.519 459.115 114.946 451.3 120.26 442.244L120.631 440.88H121.002C136.945 442.616 152.765 444.601 168.709 445.717L173.9 445.966Z" stroke="#FFF3CF" stroke-opacity="0.4" stroke-width="0.75" stroke-miterlimit="10" stroke-linecap="round" stroke-linejoin="round"/>
<path d="M316.45 69.0435L314.349 69.4105C311.508 70.5114 308.542 71.3677 305.7 72.8357L303.971 73.2027" stroke="#FFF3CF" stroke-opacity="0.4" stroke-width="0.75" stroke-miterlimit="10" stroke-linecap="round" stroke-linejoin="round"/>
<path d="M318.668 86.3059L321.75 87.2902L324.462 88.2744C336.419 92.2112 351.581 93.8106 363.908 95.4099L372.783 96.1481L382.028 97.1323C413.709 99.1008 445.142 105.498 476.576 108.451L489.273 109.435L501.97 109.804H501.6L501.23 109.435C473.371 92.4573 463.633 76.7098 429.241 73.5111L424.433 73.142H410.011C394.972 73.3881 380.549 72.1578 365.757 69.3282L358.238 67.2367C346.897 64.8992 340.733 64.038 329.146 65.8834L322.243 66.8677L319.161 67.8519L316.449 68.59" stroke="#FFF3CF" stroke-opacity="0.4" stroke-width="0.75" stroke-miterlimit="10" stroke-linecap="round" stroke-linejoin="round"/>
<path d="M303.971 73.2026L304.696 74.5582C307.114 78.9948 310.861 82.1989 315.092 84.7869L318.114 86.5122" stroke="#FFF3CF" stroke-opacity="0.4" stroke-width="0.75" stroke-miterlimit="10" stroke-linecap="round" stroke-linejoin="round"/>
<path d="M174.294 -21.2942L177.006 -23.4134L179.348 -25.7818H198.825L215.959 -26.1558L233.834 -26.9037C247.517 -27.0284 261.2 -28.3996 275.006 -28.275H277.348L273.896 -26.5298C222.986 0.520446 168.253 9.49564 112.658 20.7146L105.139 22.4598L109.207 20.0913C130.286 7.62581 150.133 -0.975417 169.486 -16.682L174.294 -21.2942Z" stroke="#FFF3CF" stroke-opacity="0.4" stroke-width="0.75" stroke-miterlimit="10" stroke-linecap="round" stroke-linejoin="round"/>
<path d="M174.384 691.266L173.642 690.517C164.123 679.288 159.92 668.557 152.626 656.204L150.896 653.833H153.986C193.298 655.58 233.476 655.455 272.912 654.207L283.172 653.833H282.431L282.06 654.207C272.541 657.077 263.022 660.072 253.503 662.942L248.063 664.689L242.253 666.435C236.937 668.681 231.498 670.179 226.058 672.3L223.71 673.298L221.608 674.047L219.259 675.045C208.009 678.289 190.826 690.143 181.43 690.642L179.082 691.017L174.384 691.266Z" stroke="#FFF3CF" stroke-opacity="0.4" stroke-width="0.75" stroke-miterlimit="10" stroke-linecap="round" stroke-linejoin="round"/>
<path d="M318.113 617.121L321.194 618.895L329.082 618.563L336.97 618.008L348.556 617.675L360.264 617.121L387.995 615.568" stroke="#FFF3CF" stroke-opacity="0.4" stroke-width="0.75" stroke-miterlimit="10" stroke-linecap="round" stroke-linejoin="round"/>
<path d="M316.645 549.845L305.756 546.759L294.501 543.674L272.724 537.503L265.261 535.775L258.165 534.047L257.186 537.132C253.638 545.648 250.457 554.411 245.931 562.557L243.239 567.37L244.585 568.111C269.054 580.823 290.463 601.311 314.687 615.134L318.113 617.232" stroke="#FFF3CF" stroke-opacity="0.4" stroke-width="0.75" stroke-miterlimit="10" stroke-linecap="round" stroke-linejoin="round"/>
<path d="M388.626 615.568H391.341C441.208 612.85 491.075 611.491 540.942 609.392L544.398 609.021L544.028 608.65L543.287 608.28C519.218 595.68 492.062 591.233 466.759 581.845L454.415 578.016L443.06 574.557C404.548 561.587 367.148 560.722 328.143 552.569L322.712 551.211L317.281 549.852" stroke="#FFF3CF" stroke-opacity="0.4" stroke-width="0.75" stroke-miterlimit="10" stroke-linecap="round" stroke-linejoin="round"/>
<path d="M333.92 651.337H337.394L340.495 651.186L351.536 650.733L362.206 650.506" stroke="#FFF3CF" stroke-opacity="0.4" stroke-width="0.75" stroke-miterlimit="10" stroke-linecap="round" stroke-linejoin="round"/>
<path d="M315.03 676.876L290.708 680.318C272.436 682.653 251.325 686.095 232.682 687.201L225.769 687.939L228.485 686.955C259.473 675.401 291.82 667.903 322.931 656.226L333.919 652.169" stroke="#FFF3CF" stroke-opacity="0.4" stroke-width="0.75" stroke-miterlimit="10" stroke-linecap="round" stroke-linejoin="round"/>
<path d="M362.588 650.23L390.326 648.471H393.778C442.968 645.706 492.281 644.323 541.47 642.187H543.566L540.114 642.941C472.556 665.06 405.983 664.18 336.822 674.36L315.617 677.125" stroke="#FFF3CF" stroke-opacity="0.4" stroke-width="0.75" stroke-miterlimit="10" stroke-linecap="round" stroke-linejoin="round"/>
<path d="M316.449 166.37L322.988 166.737H329.896C374.677 169.189 419.705 165.389 464.363 170.538L468.433 171.273L478.426 172.989C531.966 184.88 586.616 198.488 639.909 211.482L660.141 216.876L680.003 222.27L674.575 223.618C642.87 231.832 610.179 238.819 578.598 247.155L575.143 247.891" stroke="#FFF3CF" stroke-opacity="0.4" stroke-width="0.75" stroke-miterlimit="10" stroke-linecap="round" stroke-linejoin="round"/>
<path d="M318.945 175.52L315.418 172.587L311.774 169.654L309.776 168.012L308.13 166.37H316.006" stroke="#FFF3CF" stroke-opacity="0.4" stroke-width="0.75" stroke-miterlimit="10" stroke-linecap="round" stroke-linejoin="round"/>
<path d="M433.752 244.563L432.021 244.191L430.291 243.818C407.8 230.78 395.071 219.107 374.927 204.081L369.49 200.604C355.649 193.153 340.078 188.931 326.484 180.984L318.945 175.52" stroke="#FFF3CF" stroke-opacity="0.4" stroke-width="0.75" stroke-miterlimit="10" stroke-linecap="round" stroke-linejoin="round"/>
<path d="M316.449 219.608L311.017 218.248L305.832 216.889C287.314 212.068 269.661 204.651 252.007 197.605L249.291 196.863L241.761 194.144C210.404 183.636 178.43 177.208 145.716 172.882L137.074 171.893L128.433 170.904V170.533H128.803L130.902 169.174C135.346 167.196 140.407 163.735 144.975 162.251L147.691 160.891L150.037 159.903C157.937 156.565 163.493 152.609 171.023 148.901L174.48 149.643" stroke="#FFF3CF" stroke-opacity="0.4" stroke-width="0.75" stroke-miterlimit="10" stroke-linecap="round" stroke-linejoin="round"/>
<path d="M254.887 163.042L284.079 165.142L285.069 165.512L285.44 165.883L286.182 166.253L293.727 173.169C305.973 184.284 315.621 193.053 330.836 199.969L333.928 201.327L337.392 203.056C355.08 209.108 367.326 214.912 381.428 227.386L386.252 231.214L388.973 233.314L391.323 235.413L379.325 232.696C361.636 229.238 344.071 225.78 326.383 222.446L316.116 220.099" stroke="#FFF3CF" stroke-opacity="0.4" stroke-width="0.75" stroke-miterlimit="10" stroke-linecap="round" stroke-linejoin="round"/>
<path d="M174.189 148.901L176.65 149.679L178.618 149.939L191.288 152.923L216.629 157.983L229.669 159.799L242.216 161.485L254.887 163.042" stroke="#FFF3CF" stroke-opacity="0.4" stroke-width="0.75" stroke-miterlimit="10" stroke-linecap="round" stroke-linejoin="round"/>
<path d="M318.113 250.386L312.293 249.647L306.102 249.277L299.168 248.907C286.166 248.414 273.289 247.921 260.287 246.811L239.608 245.455C215.215 241.756 196.889 246.811 175.591 234.112L174.848 233.742L173.858 233.002L171.133 231.276C152.064 221.166 140.301 202.178 126.68 186.027L125.938 185.04V184.67L134.605 185.657L142.901 186.643L160.113 188.986L167.047 189.972L173.981 191.328" stroke="#FFF3CF" stroke-opacity="0.4" stroke-width="0.75" stroke-miterlimit="10" stroke-linecap="round" stroke-linejoin="round"/>
<path d="M313.121 232.917L323.714 235.046L334.677 237.424L346.379 239.552L350.198 240.303L353.646 241.054L359.066 242.431L364.24 243.432L380.992 246.937L397.374 250.442L430.632 258.078L461.057 265.714L472.02 268.468L461.057 270.596C447.261 273.225 433.342 277.356 419.3 275.854L416.59 275.103L413.511 274.727C385.672 267.342 359.682 254.699 330.243 251.068L324.453 250.317L318.295 249.942" stroke="#FFF3CF" stroke-opacity="0.4" stroke-width="0.75" stroke-miterlimit="10" stroke-linecap="round" stroke-linejoin="round"/>
<path d="M174.189 191.325L184.829 193.411C230.232 201.386 264.749 219.422 307.678 231.568L313.122 232.918" stroke="#FFF3CF" stroke-opacity="0.4" stroke-width="0.75" stroke-miterlimit="10" stroke-linecap="round" stroke-linejoin="round"/>
<path d="M30.83 345.603L28.4859 345.236C2.82431 344.624 -25.9216 344.379 -51.4598 348.664L-57.2583 349.643L-63.427 350.99L-65.771 351.724L-68.4852 352.704L-75.5175 351.48L-82.0562 350.133L-90.9391 348.052L-99.822 345.358L-108.458 343.032L-125.607 336.911L-134.243 333.483L-152.132 325.281L-157.314 322.955L-162.742 320.262L-141.522 324.302C-65.8944 339.237 11.0903 326.138 87.2115 329.443H88.5685L90.2958 329.811H92.3931C98.8084 330.3 105.224 330.545 111.639 331.157H114.353L120.522 331.892L123.977 332.259H127.801L131.626 332.626L135.697 332.994L140.138 333.361L144.95 333.728L150.132 336.789L155.313 339.482L170.365 347.684L172.462 348.419L174.189 349.398" stroke="#FFF3CF" stroke-opacity="0.4" stroke-width="0.75" stroke-miterlimit="10" stroke-linecap="round" stroke-linejoin="round"/>
<path d="M317.779 389.908L320.492 390.277C342.687 392.616 354.4 396.802 375.362 406.035L376.349 406.774H375.362L363.402 406.035C307.668 404.681 249.222 396.802 192.996 392H190.283L184.858 391.262C176.596 383.629 167.718 376.488 157.731 371.071L153.908 368.978L150.209 367.624C137.509 361.468 123.452 358.76 109.766 356.298L108.409 355.928L106.066 355.189L103.97 354.82L101.627 354.451L98.1749 353.712L94.3525 352.973L90.2835 352.235L85.8445 351.496L80.6658 350.757L75.857 350.019L65.6227 348.664L58.1012 347.68L50.9496 346.941L31.0977 345.217" stroke="#FFF3CF" stroke-opacity="0.4" stroke-width="0.75" stroke-miterlimit="10" stroke-linecap="round" stroke-linejoin="round"/>
<path d="M287.332 390.137H294.186L295.308 389.721H302.536L304.654 389.305H315.372L318.113 389.721" stroke="#FFF3CF" stroke-opacity="0.4" stroke-width="0.75" stroke-miterlimit="10" stroke-linecap="round" stroke-linejoin="round"/>
<path d="M174.189 349.376L177.64 351.096L180.722 352.447L188.979 355.887C204.632 362.397 219.299 368.907 234.581 376.031L238.649 378.119L242.469 379.839L246.537 381.559L250.357 383.279L254.424 384.998L260.587 387.086L264.038 388.438L265.763 388.806H266.133L270.817 389.912C274.391 390.771 277.965 391.14 281.662 390.894L287.332 390.526" stroke="#FFF3CF" stroke-opacity="0.4" stroke-width="0.75" stroke-miterlimit="10" stroke-linecap="round" stroke-linejoin="round"/>
<path d="M315.683 11.646L307.025 9.27267C288.102 5.65027 270.416 3.65171 250.998 3.02716L244.071 2.65243L259.16 -3.59308C273.013 -9.71368 284.886 -15.7094 297.997 -23.3289L304.552 -27.4509H304.923C339.801 -26.3267 374.927 -21.0805 409.805 -17.7079L410.547 -17.3332H411.289" stroke="#FFF3CF" stroke-opacity="0.4" stroke-width="0.75" stroke-miterlimit="10" stroke-linecap="round" stroke-linejoin="round"/>
<path d="M319.777 12.4778L315.617 11.646" stroke="#FFF3CF" stroke-opacity="0.4" stroke-width="0.75" stroke-miterlimit="10" stroke-linecap="round" stroke-linejoin="round"/>
<path d="M410.924 -17.4688L411.914 -17.0974C447.186 -12.8892 483.323 -7.56706 517.851 0.478071L521.935 1.46823H521.564L516.119 2.45841L510.921 4.19121C498.916 8.89451 488.644 16.8159 478.249 24.1184L473.422 26.8413C462.16 34.7627 438.646 43.0554 424.538 43.3029L423.176 43.6742H414.513C393.598 44.6644 373.426 43.5504 352.634 43.6742H346.075C343.353 40.9512 340.506 38.7234 337.783 35.7529L333.699 31.6684C329.12 26.9651 323.799 23.0044 318.23 19.6626L313.032 16.5683L307.215 13.8454L301.399 11.4937L297.314 10.1322" stroke="#FFF3CF" stroke-opacity="0.4" stroke-width="0.75" stroke-miterlimit="10" stroke-linecap="round" stroke-linejoin="round"/>
<path d="M315.948 132.675L340.039 133.408L364.377 133.775C393.163 134.264 421.949 133.653 450.611 135.119L457.776 135.852L461.236 136.219C486.439 138.541 509.912 145.751 534.374 151.128L536.474 151.862L538.574 152.228L537.833 150.151C535.362 144.774 533.88 139.885 530.915 134.508L529.556 132.797L528.814 131.82C527.332 129.375 525.355 127.298 523.378 125.343L522.637 124.976L522.267 124.243L514.73 124.609H507.565C458.641 124.12 410.706 112.877 361.906 109.944L353.011 108.967L344.116 107.622C325.584 104.812 304.211 100.779 293.339 83.7917L290.621 79.0256L288.521 79.7589C273.696 85.8693 253.064 90.8798 245.528 106.645L244.786 107.622L244.663 108.111C243.922 110.311 243.922 112.633 244.416 114.833L244.786 115.81L245.157 116.544C246.269 119.354 250.593 123.998 253.064 125.709L254.052 126.687L255.782 128.031L257.882 129.375" stroke="#FFF3CF" stroke-opacity="0.4" stroke-width="0.75" stroke-miterlimit="10" stroke-linecap="round" stroke-linejoin="round"/>
<path d="M258.214 128.937L300.318 132.65L315.617 133.096" stroke="#FFF3CF" stroke-opacity="0.4" stroke-width="0.75" stroke-miterlimit="10" stroke-linecap="round" stroke-linejoin="round"/>
<path d="M16.9541 471.658L29.7291 471.286L42.8762 470.914L62.4727 470.17L82.4414 469.798L84.7979 466.696C90.7513 457.641 97.945 449.082 104.146 440.15L105.139 438.786H101.666C89.387 437.049 76.7361 436.925 64.8293 433.328L61.3565 432.335L57.5116 431.343C47.9613 427.869 40.2716 422.411 32.3337 416.209L31.9616 415.465L31.5896 415.093L30.8453 417.201C25.3881 433.948 19.5588 452.679 17.0782 469.922L16.9541 471.658Z" stroke="#FFF3CF" stroke-opacity="0.4" stroke-width="0.75" stroke-miterlimit="10" stroke-linecap="round" stroke-linejoin="round"/>
<path d="M67.7019 538.757L67.3322 538.386V537.644L65.6067 532.203L64.8672 529.483L64.1277 526.391L63.7579 525.031V521.569L63.3882 519.838L63.7579 515.757L64.1277 511.924L64.4975 507.843L65.4835 504.01V503.268H62.772L43.5452 504.01L30.8505 504.381L17.7861 504.752L18.5256 508.833C20.3743 518.972 23.8253 528.741 24.3183 539.128V539.87L32.9457 539.499L41.8197 539.128L52.419 538.757H67.7019" stroke="#FFF3CF" stroke-opacity="0.4" stroke-width="0.75" stroke-miterlimit="10" stroke-linecap="round" stroke-linejoin="round"/>
<path d="M2.43951 505.764L3.18268 510.871C4.17362 520.113 8.75674 530.813 8.63288 539.568V540.298L4.54519 540.663C-7.5938 541.149 -20.2282 542 -32.2433 542L-36.7026 542.365V542C-39.18 527.773 -48.2223 519.869 -57.3885 509.533L-58.751 508.196H-55.2827C-39.9232 507.831 -25.1829 506.615 -9.82338 506.129L2.43951 505.764Z" stroke="#FFF3CF" stroke-opacity="0.4" stroke-width="0.75" stroke-miterlimit="10" stroke-linecap="round" stroke-linejoin="round"/>
<path d="M22.7776 112.317L21.7928 111.952H21.0542C4.06536 106.952 -13.1697 102.684 -29.9123 97.0739L-32.99 95.7325L-37.0525 94.3911C-49.3632 89.7571 -62.2895 85.0011 -74.354 79.7573L-75.3388 79.3915L-76.693 79.0256L-79.032 82.0743C-87.034 91.8302 -99.591 105.976 -110.178 113.659L-111.163 114.634L-99.4679 115.366C-59.5811 118.171 -19.2019 115 20.6849 112.317H22.7776Z" stroke="#FFF3CF" stroke-opacity="0.4" stroke-width="0.75" stroke-miterlimit="10" stroke-linecap="round" stroke-linejoin="round"/>
<path d="M19.4502 404.389L17.3387 409.791C11.3769 429.312 4.79415 448.22 1.81326 468.478L1.44066 471.916L-10.3587 472.284C-29.2376 472.53 -47.8682 474.249 -66.6229 474.617L-68.7344 474.985L-67.3682 471.916L-66.0019 469.583C-56.4382 455.709 -48.7376 445.887 -40.7886 430.295L-38.4287 425.138L-35.6962 420.35C-23.7727 394.935 -10.9797 404.88 15.3515 400.951L17.0903 402.67L19.4502 404.389Z" stroke="#FFF3CF" stroke-opacity="0.4" stroke-width="0.75" stroke-miterlimit="10" stroke-linecap="round" stroke-linejoin="round"/>
<path d="M-171.894 -44.6671L-169.799 -42.3305L-167.705 -39.6249C-153.415 -21.7926 -144.915 -0.516846 -136.908 20.5129L-136.169 22.2347L-128.284 24.5713L-120.031 26.908L-106.973 30.9663L-105.618 31.7042L-103.893 32.4421L-102.538 31.7042L-101.552 31.3353C-53.7548 11.6583 -5.58762 -5.55908 42.5795 -24.0063L63.1522 -31.877L73.7465 -35.9354L84.3408 -39.7478L81.6306 -40.1168C-6.94269 -57.0882 -81.1029 -47.3727 -169.799 -44.9131H-171.894" stroke="#FFF3CF" stroke-opacity="0.4" stroke-width="0.75" stroke-miterlimit="10" stroke-linecap="round" stroke-linejoin="round"/>
<path d="M155.886 238.741L127.297 236.368C54.2781 229.5 -18.7412 223.506 -91.1416 212.017L-104.508 209.645H-102.775C-37.1816 198.032 33.2387 179.3 100.194 182.547L109.847 182.922L110.218 184.295C122.099 203.776 136.827 223.006 154.649 237.367L155.886 238.741Z" stroke="#FFF3CF" stroke-opacity="0.4" stroke-width="0.75" stroke-miterlimit="10" stroke-linecap="round" stroke-linejoin="round"/>
<path d="M-77.8857 42.4681L-76.1608 43.2071C-48.0696 48.3804 -38.4595 57.8649 -12.8324 67.4725L-10.1219 68.2115L-9.13621 66.1175C-2.60624 48.5036 3.18445 28.303 10.7001 11.305L12.7946 7.48657L-12.2164 17.0942L-36.8578 26.3322L-57.4333 34.2154L-77.8857 42.4681Z" stroke="#FFF3CF" stroke-opacity="0.4" stroke-width="0.75" stroke-miterlimit="10" stroke-linecap="round" stroke-linejoin="round"/>
<path d="M59.3828 298.634L61.7623 299.639L64.5176 300.645L68.0242 302.406L71.5308 303.789L82.6768 309.448" stroke="#FFF3CF" stroke-opacity="0.4" stroke-width="0.75" stroke-miterlimit="10" stroke-linecap="round" stroke-linejoin="round"/>
<path d="M-164.56 298.634L-169.375 297.275L-174.189 296.288L-178.634 294.929L-179.374 291.842L-179.745 288.755C-181.72 277.025 -187.028 266.159 -189.004 254.429L-191.102 244.18C-194.806 227.511 -196.164 206.396 -201.102 190.344L-201.472 188.986L-201.843 187.998L-194.683 193.801C-124.314 253.564 -29.9966 265.912 54.1982 296.411L59.3832 298.51" stroke="#FFF3CF" stroke-opacity="0.4" stroke-width="0.75" stroke-miterlimit="10" stroke-linecap="round" stroke-linejoin="round"/>
<path d="M82.6766 309.061L70.6955 308.71C-7.36671 307.074 -70.854 318.408 -148.793 302.517L-159.415 300.297" stroke="#FFF3CF" stroke-opacity="0.4" stroke-width="0.75" stroke-miterlimit="10" stroke-linecap="round" stroke-linejoin="round"/>
<path d="M-119.117 137.915L-143.207 135.797L-147.283 135.049L-155.56 134.302L-159.39 133.928H-159.76L-165.937 136.295L-172.484 138.663C-176.561 140.407 -180.637 141.902 -184.467 143.896L-185.455 144.27L-186.444 145.017L-187.185 145.765L-188.173 146.139L-190.891 147.509L-193.979 149.254L-197.438 151.372L-204.356 155.235L-207.444 156.979L-208.803 157.727L-210.162 158.724L-204.727 162.836L-199.291 166.698C-187.185 173.551 -154.695 203.581 -140.612 202.085H-138.883L-136.783 201.712C-62.5388 189.002 15.7819 167.446 90.8907 168.069L100.526 168.443L110.533 169.19V168.816L110.903 168.069C114.239 163.334 115.721 161.714 120.909 158.35L123.257 156.605L125.974 155.235C133.016 150.749 141.416 148.132 148.581 143.771H149.322L150.063 143.398L145.616 142.027L141.169 141.03C114.362 132.931 86.0729 135.298 58.4012 134.8H45.3065L32.5825 135.548C-8.67789 137.417 -47.9618 142.027 -89.3457 139.659L-104.17 138.912L-119.117 137.915Z" stroke="#FFF3CF" stroke-opacity="0.4" stroke-width="0.75" stroke-miterlimit="10" stroke-linecap="round" stroke-linejoin="round"/>
<path d="M136.92 -30.0884L127.189 -31.4409C124.479 -31.8097 121.646 -31.5638 119.059 -30.8261L113.024 -28.9819L108.22 -27.6294L89.0043 -21.2361L70.1584 -14.3509L52.2979 -7.46571L34.807 -0.580519L33.4521 1.14077L32.0971 3.23092L29.0177 7.6571L26.6774 12.4521L24.3371 16.5095L22.2431 20.9357C15.9611 36.6732 11.0341 52.9026 5.12168 68.7631L4.38258 70.4844L3.64355 72.5745L9.06324 73.927L14.2366 75.6483L24.2139 77.9843L33.8216 80.6892V79.7056C44.6611 24.5012 117.704 4.58336 157.49 -25.2934L159.214 -27.0147L155.15 -27.3835L151.085 -28.1212L144.187 -28.8589L136.92 -30.0884Z" stroke="#FFF3CF" stroke-opacity="0.4" stroke-width="0.75" stroke-miterlimit="10" stroke-linecap="round" stroke-linejoin="round"/>
<path d="M49.2791 361.645L56.4573 362.607L64.0068 363.569L74.0316 364.893L79.2297 365.615L92.596 367.66C115.368 371.39 139.131 374.758 158.685 387.752L160.047 388.473L153.859 388.112L148.042 387.391C128.735 385.947 107.943 382.097 88.8832 381.736L87.1504 381.375H83.0663L78.6109 381.014L73.7841 380.653L63.1405 380.292H52.4969L31.2097 381.014L23.2889 381.375L15.7393 381.736L14.0067 380.413L12.6453 379.089L9.5512 377.044C2.49673 371.63 -6.66171 366.216 -15.2013 363.69L-19.2855 362.005L-25.4736 360.682L-12.7261 359.72L0.0215342 359.359H13.1404L25.8879 360.081H29.9721" stroke="#FFF3CF" stroke-opacity="0.4" stroke-width="0.75" stroke-miterlimit="10" stroke-linecap="round" stroke-linejoin="round"/>
<path d="M29.4336 359.359L49.3999 361.022" stroke="#FFF3CF" stroke-opacity="0.4" stroke-width="0.75" stroke-miterlimit="10" stroke-linecap="round" stroke-linejoin="round"/>
<path d="M85.1722 616.121L84.4317 612.667C80.2352 594.163 87.0236 573.069 75.7919 556.415V556.045H74.4343C20.2509 553.824 -30.8469 564.31 -85.1538 555.675H-87.8691L-78.6123 560.856L-69.3554 565.667C-48.003 576.893 -26.1568 587.378 -4.80436 598.974L6.55073 604.772L11.7346 607.486L17.1652 610.2L20.9914 612.297L24.8176 614.024L25.8049 614.394L26.5455 614.764L32.3464 615.134H38.1474L55.3035 615.875L72.4594 616.862L77.8902 617.232H83.3209L85.1722 616.121Z" stroke="#FFF3CF" stroke-opacity="0.4" stroke-width="0.75" stroke-miterlimit="10" stroke-linecap="round" stroke-linejoin="round"/>
<path d="M174.323 567.639L178.155 568.012C232.042 573.1 246.503 588.613 289.143 619.02L291.491 620.757H288.772C250.705 622.495 212.514 622.495 174.323 621.75L159.863 621.378L145.031 620.633H141.941L128.222 619.888L114.133 619.144L100.537 618.647L99.6719 610.456C96.2113 594.695 100.784 572.852 93.863 558.331L93.4922 557.338H93.863C119.818 559.324 146.267 564.412 172.222 567.019L174.323 567.639Z" stroke="#FFF3CF" stroke-opacity="0.4" stroke-width="0.75" stroke-miterlimit="10" stroke-linecap="round" stroke-linejoin="round"/>
<path d="M-535.652 53.3067C-501.947 47.2578 -468.612 41.7027 -433.673 42.1965L-421.327 42.5669L-408.981 43.3075C-360.337 46.7641 -319.965 49.3565 -272.31 37.8759L-262.68 35.7773L-253.667 33.0615L-245.889 34.4194C-235.518 36.2711 -225.147 37.8759 -214.777 39.6042L-210.949 40.2214L-206.011 41.0855C-201.937 41.8262 -197.863 42.5669 -193.788 43.3075L-186.875 44.6655L-175.146 47.011L-151.812 52.4426L-151.441 52.813H-151.071L-155.886 54.9116C-176.257 64.5404 -194.529 73.6755 -214.283 84.7857L-226.259 91.9456L-232.802 95.7725L-238.975 99.5993L-242.432 101.698L-253.05 100.957H-253.297C-255.395 100.834 -257.371 100.71 -259.47 100.587L-263.667 100.34L-264.161 100.217L-264.408 99.9697V100.217L-269.84 98.9821L-276.013 97.2539L-292.187 93.7973L-307.99 90.3408L-323.052 87.2547L-338.485 84.1685L-353.917 81.4526L-368.979 79.1071C-420.957 70.9597 -498.49 66.1452 -527.133 62.4418M-226.382 712.143L-228.111 712.513H-229.839L-236.382 713.254C-293.545 717.328 -351.695 717.328 -408.981 718.068H-437.871C-457.131 717.698 -476.267 717.822 -495.527 717.328L-502.688 717.698H-517.75L-545.158 718.439H-549.603L-554.047 718.809H-568.492L-595.654 719.179L-622.815 719.55L-623.803 719.179L-625.161 718.809L-626.519 718.068L-627.507 717.328L-628.494 715.97L-629.235 714.982L-629.606 713.624V710.909C-629.235 708.193 -626.766 706.094 -624.173 705.477L-622.815 705.107H-602.938L-582.69 704.736L-580.962 703.749L-579.604 702.391L-576.888 700.662L-574.172 698.564L-559.727 688.318L-557.628 686.96H-560.344L-563.06 686.589H-572.073C-633.186 685.108 -673.805 689.676 -732.695 705.107L-741.955 706.835L-750.844 708.563L-760.104 710.291C-788.006 713.995 -815.414 714.118 -843.563 714.118H-860.354L-877.145 714.488C-910.109 715.106 -938.752 713.748 -971.592 710.662L-981.593 709.674L-982.951 709.304L-984.679 708.563L-986.037 707.575L-987.395 706.218L-988.136 704.613C-990.605 700.292 -988.506 695.107 -984.309 692.885L-982.951 692.515L-981.222 692.145C-959.123 694.49 -938.134 696.095 -916.035 696.959H-897.886C-866.157 686.096 -849.119 661.53 -815.167 651.284L-808.254 649.185L-802.08 647.827L-804.797 645.729L-807.513 644L-810.599 641.655L-813.686 639.556C-819.365 635.482 -825.044 632.767 -830.847 628.199L-834.674 625.854L-840.477 621.41L-853.44 612.151H-865.786C-902.948 613.262 -932.826 610.176 -969.123 619.681L-970.481 620.052H-975.296C-983.691 618.323 -989.988 611.287 -989.371 602.522V601.164L-989 599.436C-985.296 582.771 -959.74 585.24 -946.036 581.536L-939.122 580.549L-930.85 579.808L-922.208 579.438L-922.578 579.067L-927.393 573.636C-938.752 559.809 -948.135 543.638 -959.617 530.429L-960.975 529.195L-968.135 522.035L-970.234 520.677L-971.963 519.319L-976.037 516.603L-978.136 515.615L-979.123 514.875L-980.111 514.504L-982.21 515.245L-984.309 515.615H-986.778L-988.877 514.875L-990.976 513.887L-993.075 512.529L-994.309 510.924L-995.297 509.196L-996.038 507.098L-996.408 504.999V502.654L-996.038 500.308L-995.05 498.209L-993.692 496.481C-989.494 491.543 -965.049 481.791 -959.74 478.952L-946.653 473.52L-934.307 468.706C-890.355 453.522 -844.921 445.991 -801.71 427.968L-782.203 420.438L-775.66 418.092L-769.116 415.377L-770.845 415.006L-772.573 414.636L-775.66 413.895C-805.29 407.599 -834.057 408.71 -861.836 392.662L-865.663 390.564L-869.737 388.218L-873.564 385.502C-886.528 375.874 -898.133 364.763 -906.528 350.814L-910.603 344.271L-914.43 337.728L-917.516 330.569L-919.862 324.767L-921.961 318.965L-923.689 318.224L-925.788 317.483L-927.517 316.742L-929.245 316.372L-931.591 315.631L-934.307 315.261L-936.653 314.891H-944.925C-951.098 315.631 -957.147 317.113 -962.456 320.322L-964.555 321.31L-967.642 323.655C-975.543 329.211 -977.395 335.63 -982.704 340.444L-984.432 341.432L-986.161 342.173H-990.111C-994.926 340.444 -997.272 338.222 -997.643 332.914V330.815L-996.902 329.087C-992.087 320.446 -982.951 310.694 -974.555 305.385L-971.839 303.657L-968.753 301.929L-965.296 300.201L-961.469 298.843M-226.382 662.394L-228.481 661.653L-233.296 660.295L-237.741 658.197L-246.012 654.74L-248.728 653.753L-251.074 652.395L-255.148 652.765H-259.223L-268.112 653.506C-300.829 654.864 -334.163 655.481 -367.004 655.604L-385.153 655.234H-400.462C-456.513 653.135 -512.688 651.037 -568.616 648.691H-570.962L-610.469 669.307H-580.221C-528.985 669.554 -477.749 672.763 -426.389 672.763H-403.795C-351.695 672.517 -299.348 671.282 -247.617 678.195L-237 679.923L-226.382 681.281M-226.382 600.917L-232.185 598.202C-262.433 583.388 -293.545 565.858 -322.064 548.082L-333.793 540.181L-338.978 541.91L-344.164 543.268C-369.844 550.304 -396.882 551.539 -421.697 560.427L-428.858 563.143L-436.019 566.229L-442.933 569.315C-456.39 575.24 -469.847 584.129 -482.07 592.276L-497.132 604.621C-500.712 608.694 -506.021 611.781 -509.108 616.348L-509.848 616.719L-510.589 617.459L-497.255 618.2C-408.981 622.767 -324.287 623.878 -236.012 618.57L-226.382 617.83M-226.382 617.706L-209.591 616.965L-192.43 615.978L-194.529 615.237L-205.888 610.423L-216.876 605.608L-226.506 600.794M-184.158 688.071L-160.824 691.157L-159.466 691.527H-157.738L-139.589 693.626L-121.07 695.354L-102.921 696.712L-84.402 697.7L-75.5128 698.07L-66.8705 698.44L-73.7844 696.342C-123.786 685.972 -174.775 680.047 -223.419 663.752L-226.506 662.394M-226.382 681.158L-222.925 681.899L-219.468 682.269L-204.653 684.614L-189.591 686.96L-186.875 687.33L-184.158 688.071M316.969 693.873L292.648 697.329L268.326 700.416C172.273 712.513 70.6649 710.291 -26.4988 715.476H-66.6236L-85.1428 714.735L-104.032 713.748L-122.922 712.39L-141.441 710.662L-160.33 708.563L-161.689 708.193H-163.047L-185.393 706.464L-197.369 708.563L-209.098 709.921L-226.259 712.02M775.503 250.451L773.775 250.081L772.046 249.711L754.885 244.526L737.724 239.094L707.476 230.206L689.945 234.65C640.314 246.007 591.547 259.833 541.668 269.956L537.224 270.944L539.57 271.684C550.804 274.894 562.039 278.597 573.151 281.93L574.879 282.671M726.736 95.0318L712.291 95.7725H702.661L700.316 96.1428H694.883C684.513 96.3897 674.018 96.5132 663.648 97.1304L656.487 97.8711H654.758L653.03 98.2414L653.4 98.6118V98.9821C664.388 116.265 679.698 128.486 687.352 147.744L687.723 149.102L688.463 150.83L688.834 152.558C690.315 158.73 690.192 166.137 691.55 172.433L691.92 173.791L692.291 176.136L693.031 178.852L694.76 183.667L697.106 188.851L698.093 190.95L699.451 193.296L719.699 199.468L740.317 205.27L758.219 210.702L775.75 215.886M775.503 92.9332H774.145L772.417 93.3035H769.33C762.91 93.427 756.49 94.0442 750.07 94.2911L726.736 95.0318M775.503 -12.7373L763.157 -17.5518L750.811 -21.9959L717.23 -35.0812L707.6 -31.0075C678.34 -18.9097 649.326 -7.42913 620.807 6.39693L619.819 6.76727L626.733 9.11276C675.13 29.1112 722.539 44.2951 771.182 62.6887L775.627 64.0466M139.803 -57.0548L156.964 -61.1285C167.458 -64.0913 177.582 -65.3257 188.2 -67.3009L198.2 -69.0291L207.83 -70.0167L217.83 -71.0043C264.869 -76.5594 307.586 -66.4368 354.131 -68.9057L363.761 -69.6464L373.761 -70.3871L383.762 -71.3746L393.762 -72.3622L405.738 -73.3498L417.713 -74.7077L442.035 -76.8063C470.925 -79.3987 499.321 -80.7566 528.211 -83.9662L533.643 -84.7069L539.076 -86.0648C545.002 -86.8055 551.051 -89.0275 556.237 -92.2372L558.583 -93.2247L561.299 -95.3233L561.669 -95.6937L562.039 -97.0516L562.78 -98.7798L563.521 -100.138L564.262 -101.866L566.607 -104.212L567.966 -105.199C570.435 -106.557 572.657 -107.421 575.126 -108.656L576.855 -109.026L578.954 -109.767H580.312L582.04 -110.137H587.843C591.793 -109.396 594.139 -109.273 598.09 -108.038L599.078 -107.298L600.065 -106.927C604.263 -105.94 605.621 -104.212 609.325 -103.1L609.695 -102.73L610.436 -102.36L613.152 -101.372C647.845 -85.571 685.377 -77.4235 720.934 -63.9678L740.44 -56.8079L759.7 -49.2776L775.503 -43.1053M-627.383 -44.3398L-622.568 -43.5991L-617.753 -42.8584L-595.777 -39.7722L-584.789 -38.044C-573.184 -36.8095 -561.702 -35.8219 -550.097 -34.5874L-543.183 -34.2171L-530.466 -33.4764L-517.75 -32.7357L-512.935 -34.0937L-505.404 -36.8095L-498.49 -40.266L-495.033 -42.3646L-491.947 -44.0929L-487.872 -46.4384C-466.143 -60.6347 -453.797 -62.2396 -429.228 -65.6961L-426.512 -66.4368L-425.154 -66.8071L-423.796 -67.1774C-406.882 -72.4856 -392.067 -83.1021 -374.412 -86.682L-368.979 -87.6696L-363.794 -88.6572C-326.385 -93.2247 -298.73 -81.8676 -264.655 -73.7201V-73.8436L-264.161 -73.5967C-261.568 -72.9794 -258.852 -72.3622 -256.136 -71.745L-249.222 -70.3871L-240.95 -68.9057C-239.099 -68.6588 -237.123 -68.2885 -235.271 -68.0416L-226.506 -66.9305L-221.073 -66.1899L-206.999 -64.8319L-198.974 -64.2147C-196.134 -64.0913 -193.295 -63.8444 -190.455 -63.7209H-188.356V-63.5975C-133.416 -62.363 -78.5994 -69.8933 -23.5358 -68.7822L-11.807 -68.4119L0.168726 -67.6712C40.0466 -66.1899 79.5541 -60.0175 118.568 -52.2404L139.803 -56.3141M-226.382 478.088L-215.024 483.519L-203.048 488.951L-200.702 495.864C-194.035 513.64 -191.319 532.651 -185.64 550.798L-184.652 553.884H-186.01C-199.715 555.365 -215.641 554.872 -226.135 544.996M-303.669 300.201L-300.212 294.769C-288.853 276.622 -278.483 257.858 -266.63 239.835L-262.186 232.675L-257.371 225.762L-247.741 211.319C-242.432 203.295 -238.358 197.246 -233.666 188.975L-232.308 186.259L-231.321 183.914C-229.839 181.074 -228.481 178.112 -227.493 175.025L-226.752 174.038L-226.382 173.297L-225.641 174.285C-215.271 189.469 -211.69 226.626 -207.493 243.662L-206.134 250.205L-205.394 253.291C-203.295 268.722 -196.751 278.844 -194.406 294.152L-194.035 296.868V299.213V302.67L-194.406 303.41V304.398L-194.776 305.138L-195.146 306.496L-195.517 308.225L-196.258 309.583L-196.628 311.311L-197.986 313.656C-199.961 318.594 -204.53 324.89 -207.246 329.828L-211.32 336.741L-215.147 343.901C-228.728 367.109 -230.95 387.848 -228.481 414.636L-228.111 418.463L-227.37 422.536L-223.296 442.411L-225.024 441.424L-226.382 440.683M-403.055 194.407L-397.005 191.074C-368.856 175.149 -342.559 159.595 -311.57 149.225L-302.311 145.768L-291.693 141.942L-280.705 138.115L-272.063 134.658L-263.42 131.572L-259.346 129.844L-255.272 128.486L-252.556 127.128L-249.84 126.14L-248.482 125.4L-247.494 125.029L-230.95 126.387L-228.851 126.758H-227.493L-218.604 127.622L-208.233 128.856L-189.714 130.955H-190.085V131.325L-191.813 132.066L-193.912 132.807L-194.653 133.177L-194.9 133.424C-195.146 133.547 -195.517 133.794 -195.764 133.918H-196.011L-196.258 134.164C-196.628 134.411 -196.998 134.535 -197.369 134.782L-197.986 134.905L-198.974 135.646C-199.591 136.016 -200.085 136.263 -200.702 136.633L-201.69 137.004C-205.27 139.226 -208.974 141.324 -212.801 143.423C-214.036 144.164 -215.271 144.781 -216.505 145.522L-221.32 148.237L-226.506 151.324L-230.95 153.669L-235.024 156.385L-238.111 158.113L-240.827 159.841L-242.185 160.829C-242.555 160.952 -242.802 161.076 -243.173 161.199H-243.296C-243.79 161.446 -244.16 161.693 -244.531 161.94L-244.901 162.187L-245.642 162.928C-246.012 163.175 -246.259 163.421 -246.63 163.545L-247.617 164.286L-248.358 164.656C-248.729 165.026 -249.469 165.643 -250.457 166.261L-251.445 166.754C-252.309 167.248 -253.173 167.742 -254.037 168.236C-255.272 168.853 -256.383 169.47 -257 169.841L-259.346 171.199L-261.322 172.556C-271.816 178.852 -282.433 185.148 -292.928 191.444L-296.384 193.542L-299.471 195.271L-305.274 199.098C-325.151 211.195 -344.534 223.54 -361.572 238.601M-226.382 579.684L-217.74 584.129C-196.751 594.128 -176.257 602.892 -153.911 609.559L-146.75 611.657L-147.491 610.299C-149.096 603.633 -151.935 601.535 -155.392 596.597L-157.738 594.251L-158.726 592.523C-164.652 585.733 -170.948 579.067 -175.516 571.29L-175.887 570.92L-176.257 570.179L-181.072 570.92C-195.887 572.278 -211.69 573.018 -225.394 566.105L-225.888 565.982C-226.752 565.611 -227.493 565.241 -228.234 564.624C-260.704 540.922 -258.235 527.713 -306.138 533.515L-309.224 534.256L-304.78 536.972C-279.717 552.403 -254.284 565.611 -228.234 579.191L-226.382 579.684ZM-159.466 16.3961C-168.726 14.1741 -178.479 12.0755 -188.356 10.2238L-189.467 10.1003C-193.912 9.23621 -198.48 8.49553 -202.925 7.6314L-205.27 7.13761L-213.048 5.90314C-214.036 5.77969 -214.9 5.5328 -215.888 5.40935L-222.308 4.42178L-227.74 3.4342L-230.95 2.69352C-232.185 2.57007 -233.419 2.32318 -234.777 2.19973L-235.765 2.07629L-250.21 -0.0223068L-264.655 -2.3678V-1.87401C-331.694 -11.7498 -399.845 -24.8351 -466.514 -29.773L-477.872 -30.5137L-476.514 -31.5013L-471.329 -34.5874C-458.736 -41.8708 -449.723 -43.846 -435.648 -45.5742L-432.191 -46.3149L-428.735 -46.6852C-413.302 -49.2776 -403.178 -55.2031 -389.227 -61.4989L-383.054 -64.2147L-381.326 -64.9554C-338.732 -81.2504 -294.903 -60.0175 -252.926 -51.87L-245.519 -50.6355C-239.099 -49.5245 -232.555 -48.6604 -226.012 -47.9197L-225.147 -47.6728H-224.036C-219.962 -47.179 -215.764 -46.8087 -211.69 -46.4384L-210.456 -46.3149L-207.493 -46.068C-204.159 -45.8211 -200.826 -45.5742 -197.492 -45.3273H-196.751L-195.764 -44.3398L-194.776 -43.5991L-187.862 -36.686L-183.788 -31.8716C-173.541 -19.5269 -166.874 -6.44155 -160.824 8.24863L-158.726 12.6927L-156.997 17.1368L-159.466 16.3961Z" stroke="#FFF3CF" stroke-opacity="0.4" stroke-width="0.75" stroke-miterlimit="10" stroke-linecap="round" stroke-linejoin="round"/>
</g>
<defs>
<clipPath id="clip0_996_2924">
<rect width="2371" height="747" fill="white" transform="translate(-998)"/>
</clipPath>
</defs>
</svg>
