<svg width="2325" height="898" viewBox="0 0 2325 898" fill="none" xmlns="http://www.w3.org/2000/svg">
<g clip-path="url(#clip0_730_425)">
<path d="M2285 213L2322.92 221.293L2329.88 222.923L2334.76 223.811L2340.1 224.996L2368.98 230.327L2398.15 235.215H2400.67L2402.75 235.659L2406 242.175L2408.52 244.989C2411.34 249.876 2415.93 254.764 2417.56 259.799V260.984H2418V261.872L2417.56 262.317V263.946L2417.11 264.834L2416.22 266.019L2415.33 267.648C2414.45 269.87 2410.45 274.757 2408.82 276.238L2403.04 282.014C2381.42 301.118 2358.91 310.3 2332.99 322L2331.36 321.556L2329.73 321.111" stroke="#FFF3CF" stroke-width="0.75" stroke-miterlimit="10" stroke-linecap="round" stroke-linejoin="round"/>
<path d="M2097.22 263L2092.61 262.556L2088.46 262.113L2078.5 260.93L2068.55 259.746L2063.65 258.859L2058.74 257.972C2043.44 255.31 2027.99 250.873 2012.84 247.324L2000.8 244.81L1995.9 243.923L1991 242.739L1997.24 239.93C2038.98 220.261 2066.02 196.451 2099.6 166.282L2109.55 158L2120.25 161.254L2148.32 170.718C2194.08 186.394 2237.91 201.923 2285 213.014" stroke="#FFF3CF" stroke-width="0.75" stroke-miterlimit="10" stroke-linecap="round" stroke-linejoin="round"/>
<path d="M2248 298L2238.53 295.146L2229.51 292.292L2211.77 287.335C2183.96 279.073 2157.64 272.614 2129.09 267.657L2097 263" stroke="#FFF3CF" stroke-width="0.75" stroke-miterlimit="10" stroke-linecap="round" stroke-linejoin="round"/>
<path d="M2330 322L2316.23 318.273L2302.92 314.547L2278.82 307.093L2248 298" stroke="#FFF3CF" stroke-width="0.75" stroke-miterlimit="10" stroke-linecap="round" stroke-linejoin="round"/>
<path d="M2329.49 838.779L2326.97 837.891C2320.47 835.67 2313.82 834.189 2307.31 832.116L2301.55 830.931L2304.06 829.303L2306.87 827.674C2310.57 825.453 2313.37 822.343 2315.89 819.086L2316.33 818.197V817.309C2318.25 814.051 2317.96 809.609 2315.89 806.648L2315 805.019L2314.11 803.835L2312.93 802.946L2312.04 801.762C2308.05 799.245 2303.91 796.579 2299.33 795.247L2296.82 794.062L2294.01 793.174C2285.58 790.657 2277.3 787.547 2268.88 784.586L2267.25 783.697L2265.63 782.809L2264 782.365L2264.89 781.476L2266.07 781.032C2272.13 778.219 2281.59 773.777 2287.8 772L2294.01 772.888L2300.51 774.073C2326.38 777.775 2355.8 781.032 2381.82 780.588H2383L2380.93 782.661C2370.88 792.285 2363.49 800.725 2355.06 811.83L2350.48 818.79L2346.34 826.193L2334.37 841" stroke="#FFF3CF" stroke-width="0.75" stroke-miterlimit="10" stroke-linecap="round" stroke-linejoin="round"/>
<path d="M2243.47 632.102H2237.23L2230.99 631.661C2162.9 629.457 2109.09 622.258 2043.82 604.774L2042.64 604.334H2041L2043.82 601.542L2054.97 601.101C2147.44 600.367 2239.46 603.746 2331.93 607.272H2333.56L2335.2 608.154C2346.05 613.884 2356.75 617.704 2367.46 623.287L2381.58 629.751L2396 635.922H2393.18C2372.21 636.216 2351.7 635.628 2330.74 635.04H2329.85" stroke="#FFF3CF" stroke-width="0.75" stroke-miterlimit="10" stroke-linecap="round" stroke-linejoin="round"/>
<path d="M2330 635L2302.83 634.55L2275.51 633.65L2243 632" stroke="#FFF3CF" stroke-width="0.75" stroke-miterlimit="10" stroke-linecap="round" stroke-linejoin="round"/>
<path d="M1927.09 813.119L1898.04 822.596C1887.17 825.113 1876.45 828.371 1865.28 829.556L1862 830L1888.96 784.688L1906.83 783.06C1962.53 777.729 2017.19 762.033 2072.45 753.888L2079 753L2077.36 753.444L2076.17 753.888C2030 768.696 1986.36 790.167 1941.23 807.788L1934.23 810.602L1927.09 813.119Z" stroke="#FFF3CF" stroke-width="0.75" stroke-miterlimit="10" stroke-linecap="round" stroke-linejoin="round"/>
<path d="M1864 90.8188L1873.93 93.3408C1905.66 101.352 1927.76 113.666 1935.76 147.343L1936.65 151.497L1937.1 155.651C1942.14 192.295 1924.64 216.032 1900.77 241.846L1896.62 246L1898.7 245.555C1967.05 241.104 2030.07 200.009 2078.85 154.464L2083 150.755L2078.11 149.123L2072.77 147.491L2067.88 146.304C2047.56 139.48 2027.99 130.875 2012.57 115.298L2009.31 112.479L2006.05 109.215C1997.45 101.055 1990.77 93.6376 1979.21 90.2254L1976.39 89.7803L1973.13 88.8901H1969.87L1966.16 88.4451C1943.77 88.1484 1922.12 91.8573 1899.44 90.9671L1896.62 90.5221H1894.54C1885.35 89.3352 1875.86 89.1869 1866.52 88L1865.33 89.1869L1864.44 90.3737V90.8188" stroke="#FFF3CF" stroke-width="0.75" stroke-miterlimit="10" stroke-linecap="round" stroke-linejoin="round"/>
<path d="M2107.69 774L2108.14 774.44H2108.58L2120.89 779.279L2123.71 780.159L2126.97 781.039L2128.6 781.919L2130.24 782.359L2132.76 783.239L2134.83 783.679L2139.73 784.852L2144.32 786.025L2155 788.518L2149.66 791.011L2145.06 793.504C2119.71 805.236 2108.73 839.552 2087.38 845.271L2084.56 846.151L2081.3 846.591C2045.26 850.111 2033.1 830.167 2006.26 815.208L2004.63 814.035L2003 813.155L2007.15 811.542C2037.7 798.49 2070.62 784.705 2102.8 776.053L2107.69 774Z" stroke="#FFF3CF" stroke-width="0.75" stroke-miterlimit="10" stroke-linecap="round" stroke-linejoin="round"/>
<path d="M2028.23 -21.47L2019.16 -25.6169C1952.21 -52.5711 1908.03 -56.8661 1847.04 -100.556L1846.6 -101L1845.7 -99.8152C1836.03 -86.3381 1810.45 -74.9343 1793.64 -76.4153H1792L1793.64 -73.1571L1794.08 -72.7128V-72.2685L1794.98 -71.3799L1795.87 -70.1951L1797.5 -68.1217L1798.69 -66.4926L1801.22 -63.6787L1803.75 -60.4205L1805.83 -58.3471L1807.47 -56.2737L1809.11 -53.4598L1810.3 -50.6458L1811.93 -47.3876C1816.25 -32.7257 1815.21 -19.5447 1807.32 -6.21571L1805.69 -3.40179L1803.6 -0.884092L1801.52 1.18932L1799.44 3.70703L1794.53 7.85384L1793.64 8.29814L1793.19 8.74244L1795.72 9.92725L1797.8 10.8158L1801.52 12.8893C1825.17 27.8474 1826.81 41.6207 1858.94 49.9144L1860.58 50.3587L1863.4 50.803C1891.82 56.1346 1910.56 56.8751 1939.57 54.0612L1942.84 53.6169H1947.45L1952.36 53.1726H1957.27C1990.3 51.9878 2006.51 60.4295 2029.72 82.7927L2035.97 89.0129C2057.09 110.043 2090.71 114.782 2117.79 123.965L2131.02 128.111L2131.92 128.556L2133.11 129V124.409L2133.55 121.151C2134.3 116.56 2133.85 111.08 2134 106.341L2133.55 105.156V104.267L2133.11 103.823V102.638L2132.66 101.75L2132.21 100.565L2128.94 95.6774L2126.41 93.1597C2108.86 76.1281 2067.65 55.8384 2044.6 46.6562L2042.07 45.4714L2040.88 45.0271H2039.98C1990.74 27.5512 2030.91 6.66904 2027.93 -19.989V-21.47" stroke="#FFF3CF" stroke-width="0.75" stroke-miterlimit="10" stroke-linecap="round" stroke-linejoin="round"/>
<path d="M1851.6 256.647L1855.31 253.834L1858.12 251.02C1884.78 224.66 1923.44 194.745 1913.36 152.243L1911.74 146.467L1910.55 143.95C1907.14 133.139 1896.78 125.29 1886.71 121.292L1883 120.107L1878.86 118.478L1874.71 117.293L1871.45 116.108L1868.19 115.22L1865.67 114.776L1863.16 113.887L1859.45 112.998L1856.2 112.11L1853.68 111.666L1851.16 110.777L1849.09 110.333L1847.46 109.889H1847.01L1846.57 109.444H1845.38L1844.49 109L1839.9 113.147L1835.02 116.849C1800.8 139.655 1765.7 141.136 1728.38 125.882L1724.23 124.698L1720.53 123.513L1716.38 122.624C1702.31 119.07 1685.43 119.515 1671.06 116.405L1666.91 115.96L1658.62 114.331C1650.47 112.702 1639.81 111.814 1631.52 111.518H1625L1626.18 114.776L1627.07 117.589C1631.07 134.472 1643.22 140.247 1636.55 159.203L1634.92 164.09L1631.22 174.012L1629.59 178.603L1629.15 181.121V183.638L1628.7 186.156L1629.89 193.56C1634.48 208.221 1643.51 220.069 1647.96 235.914L1652.55 249.539L1657.14 262.719L1662.03 275.455L1674.76 279.157L1687.5 282.415L1716.38 291.005L1730.75 295.151L1745.11 299.742L1750.45 301.371L1756.22 303L1761.55 299.298L1767.33 295.151L1773.55 291.005L1780.07 287.302C1801.54 274.714 1823.46 265.237 1847.16 257.684L1849.23 257.24L1851.6 256.647Z" stroke="#FFF3CF" stroke-width="0.75" stroke-miterlimit="10" stroke-linecap="round" stroke-linejoin="round"/>
<path d="M1882 354L1877.13 351.927C1849.21 339.637 1821.3 327.2 1792.5 316.539L1789.25 315.354L1786 313.725L1789.69 311.652C1804.46 302.324 1821.89 294.476 1838.14 288.257L1847.59 285" stroke="#FFF3CF" stroke-width="0.75" stroke-miterlimit="10" stroke-linecap="round" stroke-linejoin="round"/>
<path d="M2080 442L2073.45 439.176L2066.45 435.905L2048.59 427.581L2030.72 419.703C1993.21 402.608 1954.65 386.405 1916.84 369.757L1912.67 367.676L1882 354" stroke="#FFF3CF" stroke-width="0.75" stroke-miterlimit="10" stroke-linecap="round" stroke-linejoin="round"/>
<path d="M2235 363L2227.58 366.713C2181.11 388.695 2149.78 421.074 2157.05 474.841L2157.95 479L2148.89 474.396L2139.83 470.237L2125.43 463.256L2110.58 456.275L2080 441.868" stroke="#FFF3CF" stroke-width="0.75" stroke-miterlimit="10" stroke-linecap="round" stroke-linejoin="round"/>
<path d="M2271.32 331L2283.24 334.439L2295 338.178L2283.24 342.664L2271.32 347.598L2246.76 357.617L2235 363" stroke="#FFF3CF" stroke-width="0.75" stroke-miterlimit="10" stroke-linecap="round" stroke-linejoin="round"/>
<path d="M2125 292L2143.05 295.287L2160.8 299.471L2187.87 306.046L2222.48 316.057L2231.5 318.598L2240.53 321.437L2271 331" stroke="#FFF3CF" stroke-width="0.75" stroke-miterlimit="10" stroke-linecap="round" stroke-linejoin="round"/>
<path d="M1848 284.304L1848.44 283.86L1858.82 280.603C1902.84 267.283 1950.56 259.586 1996.06 269.503L2018.29 274.387L2030.59 277.643L2042.89 280.455L2048.67 281.639L2059.34 283.268L2064.68 284.156L2075.05 285.34L2085.43 286.524L2089.58 286.968L2093.73 287.856L2125 292" stroke="#FFF3CF" stroke-width="0.75" stroke-miterlimit="10" stroke-linecap="round" stroke-linejoin="round"/>
<path d="M1847.64 439.207L1852.53 438.318C1875.97 432.842 1900.3 428.993 1923.88 423.072L1934.26 421L1972.68 437.43C1999.23 447.644 2023.86 460.522 2049.81 472.067L2051 472.511L2046.85 472.955C1930.41 481.836 1815.6 497.675 1698.71 504.188L1660 507L1726.75 454.749L1737.13 453.565C1770.51 450.9 1802.69 447.348 1835.62 441.279L1847.64 439.207Z" stroke="#FFF3CF" stroke-width="0.75" stroke-miterlimit="10" stroke-linecap="round" stroke-linejoin="round"/>
<path d="M1757.53 821L1726.49 814.187L1722.03 813.43L1719.06 812.522L1716.24 812.068L1707.17 810.402L1698.41 808.737L1690.98 807.829L1684 806.618L1757.09 783L1773.58 784.362L1790.21 785.119L1812.79 786.028H1848" stroke="#FFF3CF" stroke-width="0.75" stroke-miterlimit="10" stroke-linecap="round" stroke-linejoin="round"/>
<path d="M1847.82 785.904L1858.56 785.452L1869 785L1847.82 821.455L1842.01 831.548H1841.56L1834.55 832L1827.99 831.548C1812.63 831.247 1801.29 828.686 1786.08 826.577L1757 820.702" stroke="#FFF3CF" stroke-width="0.75" stroke-miterlimit="10" stroke-linecap="round" stroke-linejoin="round"/>
<path d="M1365.88 472.335H1363.81C1312.25 475.4 1294.02 489.557 1251.35 501.525L1249.28 501.963H1244.39C1231.05 502.4 1218.16 498.898 1205.27 496.271L1202.45 495.833L1198.75 494.957L1195.49 494.519H1195.05L1194.6 494.081L1179.34 488.389L1164.08 481.968L1158.74 479.924L1152.97 477.151L1147.19 474.67L1138.59 470.583L1130 466.935H1132.52C1220.98 462.41 1305.73 454.821 1394.48 457.594L1401 458.032L1379.52 471.021L1373 471.459L1365.88 472.335Z" stroke="#FFF3CF" stroke-width="0.75" stroke-miterlimit="10" stroke-linecap="round" stroke-linejoin="round"/>
<path d="M1441.55 382L1450.56 385.054L1460 387.786L1413.22 389.554L1389.91 390.518L1366 391" stroke="#FFF3CF" stroke-width="0.75" stroke-miterlimit="10" stroke-linecap="round" stroke-linejoin="round"/>
<path d="M1372 360L1378.6 362.444L1385.79 364.457L1392.84 366.758L1401.23 369.634L1409.92 372.366L1442 382" stroke="#FFF3CF" stroke-width="0.75" stroke-miterlimit="10" stroke-linecap="round" stroke-linejoin="round"/>
<path d="M1069 319L1075.99 319.904L1082.53 321.11C1111.96 326.687 1139.17 339.952 1168.15 347.037L1172.32 347.489L1176.48 348.393C1193.57 350.654 1214.68 345.831 1231.93 342.062L1257.2 337.39L1282.02 332.717L1301.79 338.143L1321.57 344.022L1334.8 347.79L1348.47 352.011L1352.63 353.217L1356.8 354.875L1365.12 357.437L1366.01 357.89H1366.46L1373 360" stroke="#FFF3CF" stroke-width="0.75" stroke-miterlimit="10" stroke-linecap="round" stroke-linejoin="round"/>
<path d="M1063 318L1069 319" stroke="#FFF3CF" stroke-width="0.75" stroke-miterlimit="10" stroke-linecap="round" stroke-linejoin="round"/>
<path d="M1056 318H1063" stroke="#FFF3CF" stroke-width="0.75" stroke-miterlimit="10" stroke-linecap="round" stroke-linejoin="round"/>
<path d="M1061 343L1048.9 336.447C1035.46 329.447 1022.47 321.404 1008.29 316.192L1005 315H1007.84C1021.43 315.745 1035.02 316.34 1048.46 317.085L1055.47 317.532" stroke="#FFF3CF" stroke-width="0.75" stroke-miterlimit="10" stroke-linecap="round" stroke-linejoin="round"/>
<path d="M1366 390.308L1348.64 390.753H1331.27C1268.04 391.494 1203.93 390.456 1140.7 389.121H1127.94C1113.84 377.554 1100.03 367.173 1084.6 357.385L1073.02 349.97L1061 343" stroke="#FFF3CF" stroke-width="0.75" stroke-miterlimit="10" stroke-linecap="round" stroke-linejoin="round"/>
<path d="M1365.79 730.554L1361.64 731H1357.48C1345.46 721.489 1331.51 713.91 1317.41 707.817L1308.36 704.548L1299.3 701.724C1265.17 691.619 1231.62 679.879 1197.34 670.368L1185.32 667.099L1173 664.275L1176.27 663.829L1179.09 662.938C1225.54 651.346 1287.73 662.938 1334.18 669.476L1347.83 671.557L1361.49 674.083C1426.2 687.904 1494.32 706.926 1557.84 726.096L1562 727.731L1548.79 727.285C1502.19 725.947 1454.69 727.582 1408.09 728.919L1365.79 730.554Z" stroke="#FFF3CF" stroke-width="0.75" stroke-miterlimit="10" stroke-linecap="round" stroke-linejoin="round"/>
<path d="M1415 356L1406.49 353.481L1398.28 350.667L1384.48 345.778L1377.15 343.259L1370.11 341.185L1368.05 340.296L1366 340" stroke="#FFF3CF" stroke-width="0.75" stroke-miterlimit="10" stroke-linecap="round" stroke-linejoin="round"/>
<path d="M1607 378.574L1600.75 379.026C1579.34 379.176 1533.68 387.905 1514.35 381.885L1498.28 379.327L1490.4 377.671C1475.53 374.36 1460.66 370.899 1446.23 365.933L1442.07 364.729L1437.46 363.525L1435.08 362.321L1415 356" stroke="#FFF3CF" stroke-width="0.75" stroke-miterlimit="10" stroke-linecap="round" stroke-linejoin="round"/>
<path d="M1606.85 446.33H1603.58C1563.17 449.161 1522.61 447.969 1482.2 445.883L1462 444.692L1510.73 414.002C1541.48 412.959 1574.02 409.235 1604.92 407.447L1607 407" stroke="#FFF3CF" stroke-width="0.75" stroke-miterlimit="10" stroke-linecap="round" stroke-linejoin="round"/>
<path d="M1607 512L1606.55 511.553V511.106C1601.21 505.295 1597.5 498.292 1591.27 493.226L1588.01 489.948L1583.85 487.415L1582.96 486.521L1581.78 486.075L1575.99 483.244L1566.05 479.072L1556.1 476.539C1542.45 473.261 1528.06 472.963 1513.96 473.261H1506.99C1486.37 474.751 1465.44 472.367 1444.67 472.069L1427.31 471.175H1419L1436.81 460L1446.3 460.447C1499.72 464.768 1550.47 465.811 1603.88 463.278L1606.7 462.831" stroke="#FFF3CF" stroke-width="0.75" stroke-miterlimit="10" stroke-linecap="round" stroke-linejoin="round"/>
<path d="M1607 569L1602.06 567.446C1590.84 563.772 1580.07 560.663 1568.84 557.272L1566 556.424L1572.28 556" stroke="#FFF3CF" stroke-width="0.75" stroke-miterlimit="10" stroke-linecap="round" stroke-linejoin="round"/>
<path d="M1526 568L1551.7 575.692L1553.05 576.154H1553.8L1558.88 577.846L1564.26 579.538L1569.19 581.231L1573.82 582.462L1581.74 585.077L1589.51 588.154L1607 594" stroke="#FFF3CF" stroke-width="0.75" stroke-miterlimit="10" stroke-linecap="round" stroke-linejoin="round"/>
<path d="M1607 668L1597.04 663.12C1559.43 642.859 1533.86 640.345 1493.28 635.613L1484.21 633.986C1449.27 625.704 1430.39 598.345 1405.72 575.57L1404.08 573.944L1402 572.317L1407.8 571.873L1413.6 571.43L1429.65 570.246L1445.41 568.62L1474.4 565.81L1503.68 563L1515.28 565.81L1526.43 568.62" stroke="#FFF3CF" stroke-width="0.75" stroke-miterlimit="10" stroke-linecap="round" stroke-linejoin="round"/>
<path d="M1081 588.528L1103.26 586.897L1125.97 585.711L1144.97 584.525L1163.97 583.636L1184.6 582.45L1205.67 581.56L1254.35 579.485L1303.04 577.41L1336.88 576.224L1351.27 575.334L1366.11 574.445L1368.19 574H1370.27L1371.9 574.889L1373.09 575.779L1376.36 577.854C1383.78 582.894 1389.12 587.49 1395.8 593.568L1399.06 596.829L1406.04 604.241L1416.73 614.915L1419.99 618.621C1441.96 638.781 1460.51 651.382 1490.19 655.681L1495.54 656.57L1500.43 657.46C1536.06 660.573 1560.99 666.651 1593.35 684.291L1598.69 687.108L1607 692" stroke="#FFF3CF" stroke-width="0.75" stroke-miterlimit="10" stroke-linecap="round" stroke-linejoin="round"/>
<path d="M1059.98 644L1047 640.333L1034.18 637.107L1020.46 633L1006.45 629.333L989 625.373L989.895 618.773L990.64 612.613L991.088 605.72L990.64 599.267V597.213L990.193 595.16L1035.82 591.933L1081 589" stroke="#FFF3CF" stroke-width="0.75" stroke-miterlimit="10" stroke-linecap="round" stroke-linejoin="round"/>
<path d="M1607 726L1597.06 721.832L1587.12 718.11C1480.6 682.83 1371.41 652.015 1259.25 641.892L1253.46 641.446L1241.89 640.552L1230.32 640.106C1197.53 639.064 1176.02 645.911 1144.86 652.461L1136.55 654.099C1116.08 656.927 1100.21 651.866 1079.29 648.74L1072.76 647.102L1066.53 645.911L1060 644.274" stroke="#FFF3CF" stroke-width="0.75" stroke-miterlimit="10" stroke-linecap="round" stroke-linejoin="round"/>
<path d="M1606.85 802.428H1603.58L1587.82 803.33C1570.58 804.533 1553.48 806.188 1536.54 809.646L1532.37 810.549L1528.66 811C1518.99 806.338 1509.18 800.623 1499.37 796.713L1491.49 793.856L1484.06 791.3C1462.06 784.532 1437.38 786.186 1416.72 775.058L1415.08 774.156L1413 772.953L1423.41 770.847C1482.42 762.576 1543.08 766.787 1602.39 769.644H1607" stroke="#FFF3CF" stroke-width="0.75" stroke-miterlimit="10" stroke-linecap="round" stroke-linejoin="round"/>
<path d="M1459.44 824L1450.39 825.61L1441.34 826.781L1433.48 827.951L1426.07 828.829L1420.28 829.268C1406.19 831.317 1387.8 830.732 1373.72 831.756L1371.19 832.634L1368.67 833.805L1366.15 835.854L1364.52 837.902L1363.33 840.683L1362.44 843.171L1362 845.951L1362.44 848.439L1363.33 850.927L1364.52 853.415L1366.6 855.902L1369.12 857.512L1371.64 858.683L1374.16 859.561L1376.98 860C1393.74 858.829 1412.42 859.415 1428.89 857.22L1437.19 856.341L1445.5 855.171L1493.4 846.683L1502 845.073C1527.36 839.951 1549.61 835.268 1575.41 832.927L1589.8 831.756L1604.63 831.317L1605.81 830.878H1607" stroke="#FFF3CF" stroke-width="0.75" stroke-miterlimit="10" stroke-linecap="round" stroke-linejoin="round"/>
<path d="M1056 834L1081.48 830.314L1106.97 827.07C1146.67 822.646 1186.38 819.697 1225.94 815.126L1237.05 813.504L1248.61 811.882L1259.28 809.818L1270.39 807.753L1288.46 803.625L1306.98 799.054L1325.06 794.188L1364.62 783.571H1365.51L1374.1 781.064L1382.4 779L1385.21 781.507C1422.7 812.029 1449.07 802.445 1487.3 816.306L1491 817.485L1488.93 817.928L1486.85 818.37L1483.59 819.255L1458.4 823.826" stroke="#FFF3CF" stroke-width="0.75" stroke-miterlimit="10" stroke-linecap="round" stroke-linejoin="round"/>
<path d="M469.9 663V662.552L469.45 662.105C467.95 656.882 465.7 651.958 464.5 646.735L463.6 643.452L462.7 639.722C458.95 624.8 456.55 612.116 451.45 597.343V596.448L451 596H452.2L453.1 596.448L455.2 598.537L457.3 600.178L462.7 605.102L468.55 610.474L474.4 616.294L480.7 622.114L483.55 624.65L486.1 627.486L495.25 635.842L504.4 643.751L514 651.212L511.15 652.107C499.15 655.688 486.25 658.673 474.1 662.105L469.9 663Z" stroke="#FFF3CF" stroke-width="0.75" stroke-miterlimit="10" stroke-linecap="round" stroke-linejoin="round"/>
<path d="M667 460.436L663.284 460.88H660.013C630.73 463.102 622.554 474.948 609.622 500.419L606.351 506.194L603.527 511.525C594.311 532.108 575.284 548.398 569.635 569.573V570.758L569.189 571.943H567.108C541.689 572.239 519.838 571.498 494.716 567.056L491 566.167L491.892 562.91L492.784 559.208C503.932 505.602 518.5 499.678 558.784 464.138L569.486 455.846L574.838 452.144C597.432 437.779 589.257 442.074 615.716 444.739L620.622 445.628L625.973 446.813C637.865 448.59 652.284 452.292 662.689 458.363L665.959 460.436H667Z" stroke="#FFF3CF" stroke-width="0.75" stroke-miterlimit="10" stroke-linecap="round" stroke-linejoin="round"/>
<path d="M772.913 782.132L807.528 784.22C827.35 786.606 830.604 779.597 841.255 795.406L842.882 797.046L844.066 799.134C849.243 808.232 853.385 817.181 858.858 826.13L863 831.946L858.414 832.394H853.829C810.191 834.183 766.553 834.929 723.063 837.017L716.11 837.465L703.832 837.912L691.85 838.359C674.543 838.807 657.384 839.851 640.076 840L638.005 839.105L636.378 837.912L629.87 834.631L626.615 833.438L622.917 831.797L619.663 830.604L619.219 830.156H618.331L617.888 829.709L617 829.262L618.627 828.367L619.811 827.472L621.438 826.577L622.621 825.384L625.876 823.743L631.645 819.567L634.159 817.479L637.414 814.944L651.762 802.565L654.573 799.731L657.384 797.196L659.898 794.66L662.413 791.826L665.224 789.291L667.738 786.457L669.366 784.817L670.993 782.729L673.064 781.088L674.691 779H686.969L691.554 779.447H696.14C719.364 779.895 743.624 781.237 766.848 782.281H772.913V782.132Z" stroke="#FFF3CF" stroke-width="0.75" stroke-miterlimit="10" stroke-linecap="round" stroke-linejoin="round"/>
<path d="M1057 387.719H1044.68C971.058 389.951 895.952 378.343 822.182 371.943L817.284 371.05L809.862 369.413C787.301 361.972 765.333 344.856 739.654 338.01L713.234 328.931C650.15 310.03 582.614 290.831 521.312 265.977L515.078 263.893L513 263L518.789 264.191C636.643 284.134 756.13 294.701 875.32 304.375L883.929 305.268" stroke="#FFF3CF" stroke-width="0.75" stroke-miterlimit="10" stroke-linecap="round" stroke-linejoin="round"/>
<path d="M884 306L893.039 306.883L901.633 307.325C925.933 314.535 948.9 317.037 973.349 322.482L976.164 323.365L978.683 324.248C1014.99 335.138 1054.1 358.979 1085.81 379.14L1099 389L1095.3 388.558C1085.37 388.411 1075.44 388.853 1065.66 388.117L1056.62 387.675" stroke="#FFF3CF" stroke-width="0.75" stroke-miterlimit="10" stroke-linecap="round" stroke-linejoin="round"/>
<path d="M1052 549.929L1025.14 552L1019.8 549.929L1014.46 548.301C996.803 542.235 977.514 533.95 959.56 529.807L946.355 526.552C921.427 521.817 897.983 519.746 872.907 517.97L865.933 517.526L858.96 516.639L850.354 515.751L842.044 514.863C819.788 511.904 797.382 510.425 775.274 507.466L770.378 506.578L765.036 505.69C750.495 502.879 740.999 499.18 729.128 490.007L724.974 486.752L721.264 483.497L718 480.686L728.683 480.242C779.725 478.466 827.503 486.9 878.397 491.339L884.184 491.782" stroke="#FFF3CF" stroke-width="0.75" stroke-miterlimit="10" stroke-linecap="round" stroke-linejoin="round"/>
<path d="M1055.56 508L1065.04 508.887L1074.52 509.331C1097.34 510.81 1120.46 511.254 1143.28 512.141L1154.39 513.028L1164.76 513.915C1198.69 516.577 1208.62 521.901 1242.26 532.845L1252.63 536.099L1263 538.908L1258.41 539.352C1198.69 541.275 1138.39 543.641 1078.82 548.373L1052 550" stroke="#FFF3CF" stroke-width="0.75" stroke-miterlimit="10" stroke-linecap="round" stroke-linejoin="round"/>
<path d="M884 492L896.041 493.185C943.167 497.037 989.995 501.926 1036.97 506.37L1056 508" stroke="#FFF3CF" stroke-width="0.75" stroke-miterlimit="10" stroke-linecap="round" stroke-linejoin="round"/>
<path d="M883.967 601.058H888.128L891.843 600.612L932.708 598.529L973.574 596V598.083C976.397 621.589 964.658 648.667 954.107 669.198L950.838 675L947.569 673.81L943.854 672.62C915.025 663.544 883.224 662.503 853.355 657.742L836.415 655.659L819.474 653.13L804.168 651.493L789.308 649.857L782.324 649.411L775.785 648.518L774.894 647.328L774.448 645.691L773.259 643.162L772.368 640.633L770.733 635.277C768.355 627.838 768.801 621.738 769.841 614.151L771.476 607.605L772.368 604.778L779.352 604.331H786.336L812.044 603.439L838.049 602.546L861.231 601.653L883.967 601.058Z" stroke="#FFF3CF" stroke-width="0.75" stroke-miterlimit="10" stroke-linecap="round" stroke-linejoin="round"/>
<path d="M1057 416.446H1066.05C1191.08 418.674 1317.75 422.24 1442.49 416.891L1468 416L1446.94 428.777L1426.32 442L1417.72 441.109C1400.51 440.069 1383.75 440.069 1366.55 439.474H1365.66" stroke="#FFF3CF" stroke-width="0.75" stroke-miterlimit="10" stroke-linecap="round" stroke-linejoin="round"/>
<path d="M1366 439.471H1346.98C1251.16 439.024 1155.04 452.298 1059.07 450.658H1054.46H1051.64C1042.73 450.508 1033.67 451.403 1024.75 451.553L1009.75 452L996.377 449.464C966.219 439.919 939.329 422.617 909.617 411.729L901 408L918.382 409.641C966.07 415.308 1004.85 416.949 1052.24 415.905L1056.84 416.353" stroke="#FFF3CF" stroke-width="0.75" stroke-miterlimit="10" stroke-linecap="round" stroke-linejoin="round"/>
<path d="M1058 63.6686L1053.84 64.8563C1022.22 78.3658 931.074 96.7744 955.568 149.922L957.201 152L950.669 151.109C878.967 139.53 809.195 118.894 738.532 102.861L732 101.228L732.445 99.595L732.891 98.4074C735.414 83.2649 744.173 69.9038 755.158 59.6603L765.105 55.5036L775.051 51.7922C809.64 39.4703 846.456 36.0558 881.936 27.8907L884.46 27" stroke="#FFF3CF" stroke-width="0.75" stroke-miterlimit="10" stroke-linecap="round" stroke-linejoin="round"/>
<path d="M1058 33L1064.05 35.5215L1069.8 38.3397L1075.11 41.3062L1080.13 44.5694L1082.49 46.6459L1085 48.2775L1086.62 49.9091L1088.69 51.5407L1090.75 53.6172L1092.82 56.1388L1093.7 56.5837L1094 56.8804L1083.82 58.2153L1073.49 60.2919L1065.67 61.9235L1058 64" stroke="#FFF3CF" stroke-width="0.75" stroke-miterlimit="10" stroke-linecap="round" stroke-linejoin="round"/>
<path d="M884 27.3578L895.59 24.7654L906.734 22.173C936.601 19.1232 966.468 19.5806 996.335 21.7155L1012.83 23.393C1025.01 25.5279 1037.35 26.9003 1049.23 30.5601L1053.84 31.7801L1058 33" stroke="#FFF3CF" stroke-width="0.75" stroke-miterlimit="10" stroke-linecap="round" stroke-linejoin="round"/>
<path d="M883.652 536.114L885.286 536.561C918.861 538.5 947.979 542.526 979.475 554.456L982 555.351H981.109C934.014 558.632 887.069 561.465 839.826 562.807L796 564L797.634 561.912C805.062 551.921 812.788 542.526 819.176 531.64L819.621 530H820.067C839.232 532.088 858.248 534.474 877.412 535.816L883.652 536.114Z" stroke="#FFF3CF" stroke-width="0.75" stroke-miterlimit="10" stroke-linecap="round" stroke-linejoin="round"/>
<path d="M1055 83L1052.48 83.4412C1049.06 84.7647 1045.5 85.7941 1042.08 87.5588L1040 88" stroke="#FFF3CF" stroke-width="0.75" stroke-miterlimit="10" stroke-linecap="round" stroke-linejoin="round"/>
<path d="M1057.67 103.752L1061.37 104.935L1064.63 106.118C1079 110.851 1097.23 112.774 1112.05 114.696L1122.71 115.584L1133.83 116.767C1171.91 119.133 1209.69 126.824 1247.48 130.373L1262.74 131.556L1278 132H1277.56L1277.11 131.556C1243.62 111.147 1231.92 92.216 1190.58 88.3707L1184.8 87.927H1167.46C1149.39 88.2228 1132.05 86.7438 1114.27 83.3422L1105.23 80.828C1091.6 78.018 1084.19 76.9827 1070.26 79.2011L1061.96 80.3843L1058.26 81.5675L1055 82.4548" stroke="#FFF3CF" stroke-width="0.75" stroke-miterlimit="10" stroke-linecap="round" stroke-linejoin="round"/>
<path d="M1040 88L1040.87 89.6296C1043.78 94.963 1048.28 98.8148 1053.37 101.926L1057 104" stroke="#FFF3CF" stroke-width="0.75" stroke-miterlimit="10" stroke-linecap="round" stroke-linejoin="round"/>
<path d="M884.126 -25.5986L887.386 -28.1461L890.201 -30.9933H913.613L934.209 -31.4429L955.694 -32.342C972.142 -32.4918 988.589 -34.1402 1005.18 -33.9904H1008L1003.85 -31.8924C942.655 0.625779 876.865 11.4152 810.039 24.902L801 27L805.89 24.1528C831.228 9.16743 855.084 -1.17246 878.347 -20.054L884.126 -25.5986Z" stroke="#FFF3CF" stroke-width="0.75" stroke-miterlimit="10" stroke-linecap="round" stroke-linejoin="round"/>
<path d="M1365.39 194.218L1363.31 193.772L1361.22 192.881L1350.81 190.802L1340.85 188.277L1339.96 186.198C1335.79 173.426 1331.48 160.059 1323.89 149.069L1323 147.881H1323.45C1359.74 143.723 1394.54 132.584 1429.79 123.525L1440.94 121L1443.03 124.713L1445.11 127.98C1455.37 144.614 1469.8 157.98 1479.91 174.168L1481.1 176.693L1482.74 179.515C1488.24 191.842 1486.6 206.248 1490.62 219.911L1491.81 222.733L1493 226H1492.55L1492.11 225.554L1454.48 215.604L1417.3 205.653L1391.27 199.416L1365.39 194.218Z" stroke="#FFF3CF" stroke-width="0.75" stroke-miterlimit="10" stroke-linecap="round" stroke-linejoin="round"/>
<path d="M884.234 831L883.342 830.1C871.9 816.6 866.848 803.7 858.08 788.85L856 786H859.715C906.969 788.1 955.264 787.95 1002.67 786.45L1015 786H1014.11L1013.66 786.45C1002.22 789.9 990.779 793.5 979.337 796.95L972.798 799.05L965.814 801.15C959.424 803.85 952.886 805.65 946.348 808.2L943.524 809.4L940.998 810.3L938.175 811.5C924.652 815.4 903.997 829.65 892.704 830.25L889.88 830.7L884.234 831Z" stroke="#FFF3CF" stroke-width="0.75" stroke-miterlimit="10" stroke-linecap="round" stroke-linejoin="round"/>
<path d="M1313.28 531.768L1302.59 528.928L1291.45 526.088L1281.95 523.547L1272 520.707L1274.82 519.81L1277.64 518.614C1351.75 484.832 1411.6 495.146 1491.05 496.641H1500.1C1518.67 496.641 1534.41 495.146 1552.97 499.481L1559.21 501.125L1562.03 502.321L1565.3 503.517L1568.12 504.713L1571.39 506.357L1571.83 506.805H1572.28L1573.47 508.001H1573.91L1574.36 508.45L1575.99 509.645L1577.18 511.29L1578.81 512.934L1580 514.578L1573.47 515.475C1515.1 520.856 1457.19 528.181 1398.82 532.516L1387.69 533.413L1376.99 534.309L1365.86 534.758L1355.91 535.655L1345.96 536.103L1340.16 536.552L1334.37 537L1313.28 531.768Z" stroke="#FFF3CF" stroke-width="0.75" stroke-miterlimit="10" stroke-linecap="round" stroke-linejoin="round"/>
<path d="M1057 741.867L1060.7 744L1070.19 743.6L1079.67 742.933L1093.59 742.533L1107.67 741.867L1141 740" stroke="#FFF3CF" stroke-width="0.75" stroke-miterlimit="10" stroke-linecap="round" stroke-linejoin="round"/>
<path d="M1055.24 660.991L1042.15 657.282L1028.62 653.573L1002.44 646.154L993.471 644.077L984.941 642L983.765 645.709C979.5 655.947 975.676 666.481 970.235 676.273L967 682.059L968.618 682.95C998.029 698.231 1023.76 722.861 1052.88 739.478L1057 742" stroke="#FFF3CF" stroke-width="0.75" stroke-miterlimit="10" stroke-linecap="round" stroke-linejoin="round"/>
<path d="M1141.76 740H1145.02C1204.96 736.733 1264.9 735.1 1324.85 732.575L1329 732.13L1328.55 731.684L1327.66 731.239C1298.73 716.092 1266.09 710.746 1235.68 699.461L1220.84 694.857L1207.19 690.699C1160.9 675.107 1115.94 674.068 1069.06 664.267L1062.53 662.634L1056 661" stroke="#FFF3CF" stroke-width="0.75" stroke-miterlimit="10" stroke-linecap="round" stroke-linejoin="round"/>
<path d="M1076 783H1080.18L1083.9 782.818L1097.18 782.273L1110 782" stroke="#FFF3CF" stroke-width="0.75" stroke-miterlimit="10" stroke-linecap="round" stroke-linejoin="round"/>
<path d="M1053.29 813.701L1024.06 817.838C1002.1 820.646 976.719 824.784 954.31 826.113L946 827L949.265 825.818C986.514 811.928 1025.39 802.914 1062.79 788.876L1076 784" stroke="#FFF3CF" stroke-width="0.75" stroke-miterlimit="10" stroke-linecap="round" stroke-linejoin="round"/>
<path d="M1110.46 781.669L1143.8 779.554H1147.95C1207.08 776.23 1266.35 774.568 1325.48 772H1328L1323.85 772.906C1242.64 799.496 1162.62 798.439 1079.49 810.676L1054 814" stroke="#FFF3CF" stroke-width="0.75" stroke-miterlimit="10" stroke-linecap="round" stroke-linejoin="round"/>
<path d="M1055 200L1062.86 200.442H1071.16C1124.99 203.389 1179.12 198.821 1232.8 205.011L1237.69 205.895L1249.7 207.958C1314.06 222.253 1379.75 238.611 1443.81 254.232L1468.13 260.716L1492 267.2L1485.48 268.821C1447.37 278.695 1408.07 287.095 1370.11 297.116L1365.96 298" stroke="#FFF3CF" stroke-width="0.75" stroke-miterlimit="10" stroke-linecap="round" stroke-linejoin="round"/>
<path d="M1058 211L1053.76 207.474L1049.38 203.949L1046.98 201.974L1045 200H1054.47" stroke="#FFF3CF" stroke-width="0.75" stroke-miterlimit="10" stroke-linecap="round" stroke-linejoin="round"/>
<path d="M1196 294L1193.92 293.552L1191.84 293.104C1164.81 277.43 1149.5 263.397 1125.29 245.335L1118.76 241.155C1102.12 232.198 1083.4 227.122 1067.06 217.568L1058 211" stroke="#FFF3CF" stroke-width="0.75" stroke-miterlimit="10" stroke-linecap="round" stroke-linejoin="round"/>
<path d="M1366 298.49L1347.09 302.834L1328.04 306.89L1282.49 315L1277.87 313.697L1272.96 312.538L1246.02 306.166L1219.22 299.214L1213.71 298.49L1196 294" stroke="#FFF3CF" stroke-width="0.75" stroke-miterlimit="10" stroke-linecap="round" stroke-linejoin="round"/>
<path d="M1055 264L1048.47 262.365L1042.24 260.731C1019.98 254.935 998.76 246.019 977.54 237.549L974.275 236.657L965.223 233.388C927.532 220.757 889.098 213.03 849.775 207.829L839.387 206.64L829 205.451V205.005H829.445L831.968 203.371C837.31 200.993 843.394 196.832 848.884 195.049L852.149 193.414L854.968 192.226C864.466 188.213 871.143 183.458 880.195 179L884.35 179.892" stroke="#FFF3CF" stroke-width="0.75" stroke-miterlimit="10" stroke-linecap="round" stroke-linejoin="round"/>
<path d="M981 196L1016.09 198.524L1017.28 198.969L1017.73 199.415L1018.62 199.86L1027.69 208.174C1042.41 221.536 1054 232.077 1072.29 240.391L1076.01 242.024L1080.17 244.102C1101.44 251.377 1116.16 258.355 1133.11 273.35L1138.9 277.952L1142.17 280.476L1145 283L1130.58 279.734C1109.32 275.577 1088.2 271.42 1066.94 267.411L1054.6 264.59" stroke="#FFF3CF" stroke-width="0.75" stroke-miterlimit="10" stroke-linecap="round" stroke-linejoin="round"/>
<path d="M884 179L886.957 179.936L889.323 180.248L904.553 183.835L935.014 189.917L950.687 192.101L965.77 194.128L981 196" stroke="#FFF3CF" stroke-width="0.75" stroke-miterlimit="10" stroke-linecap="round" stroke-linejoin="round"/>
<path d="M1057 301L1050 300.111L1042.56 299.666L1034.23 299.221C1018.6 298.629 1003.12 298.036 987.492 296.702L962.635 295.071C933.314 290.625 911.285 296.702 885.685 281.435L884.792 280.991L883.601 280.101L880.327 278.026C857.405 265.872 843.265 243.047 826.893 223.63L826 222.445V222L836.419 223.186L846.391 224.371L867.08 227.188L875.415 228.373L883.75 230.004" stroke="#FFF3CF" stroke-width="0.75" stroke-miterlimit="10" stroke-linecap="round" stroke-linejoin="round"/>
<path d="M1051 280L1063.73 282.558L1076.91 285.417L1090.98 287.976L1095.57 288.878L1099.71 289.781L1106.23 291.437L1112.45 292.641L1132.58 296.854L1152.27 301.067L1192.25 310.247L1228.82 319.426L1242 322.737L1228.82 325.295C1212.24 328.455 1195.51 333.421 1178.63 331.615L1175.37 330.712L1171.67 330.261C1138.21 321.383 1106.97 306.184 1071.58 301.82L1064.62 300.917L1057.22 300.466" stroke="#FFF3CF" stroke-width="0.75" stroke-miterlimit="10" stroke-linecap="round" stroke-linejoin="round"/>
<path d="M884 230L896.789 232.507C951.365 242.094 992.855 263.776 1044.46 278.378L1051 280" stroke="#FFF3CF" stroke-width="0.75" stroke-miterlimit="10" stroke-linecap="round" stroke-linejoin="round"/>
<path d="M711.679 415.464L708.861 415.023C678.015 414.287 643.462 413.992 612.764 419.143L605.794 420.321L598.379 421.94L595.562 422.823L592.299 424L583.846 422.528L575.986 420.909L565.309 418.408L554.632 415.17L544.251 412.374L523.638 405.015L513.257 400.894L491.754 391.034L485.525 388.238L479 385L504.507 389.857C595.413 407.811 687.951 392.064 779.45 396.038H781.082L783.158 396.479H785.679C793.39 397.068 801.102 397.362 808.813 398.098H812.076L819.491 398.981L823.643 399.423H828.24L832.837 399.864L837.731 400.306L843.07 400.747L848.854 401.189L855.082 404.868L861.31 408.106L879.403 417.966L881.924 418.849L884 420.026" stroke="#FFF3CF" stroke-width="0.75" stroke-miterlimit="10" stroke-linecap="round" stroke-linejoin="round"/>
<path d="M1056.6 468.724L1059.86 469.168C1086.54 471.98 1100.62 477.012 1125.81 488.112L1127 489H1125.81L1111.44 488.112C1044.44 486.484 974.191 477.012 906.605 471.24H903.345L896.823 470.352C886.893 461.176 876.221 452.592 864.216 446.08L859.621 443.564L855.175 441.936C839.909 434.536 823.012 431.28 806.561 428.32L804.93 427.876L802.114 426.988L799.595 426.544L796.778 426.1L792.629 425.212L788.034 424.324L783.143 423.436L777.807 422.548L771.582 421.66L765.802 420.772L753.5 419.144L744.459 417.96L735.862 417.072L712 415" stroke="#FFF3CF" stroke-width="0.75" stroke-miterlimit="10" stroke-linecap="round" stroke-linejoin="round"/>
<path d="M1020 469H1028.24L1029.59 468.5H1038.28L1040.82 468H1053.7L1057 468.5" stroke="#FFF3CF" stroke-width="0.75" stroke-miterlimit="10" stroke-linecap="round" stroke-linejoin="round"/>
<path d="M884 420L888.148 422.067L891.852 423.692L901.778 427.826C920.593 435.652 938.222 443.478 956.593 452.043L961.482 454.553L966.074 456.62L970.963 458.688L975.556 460.755L980.444 462.822L987.852 465.333L992 466.957L994.074 467.4H994.519L1000.15 468.729C1004.44 469.763 1008.74 470.206 1013.19 469.91L1020 469.467" stroke="#FFF3CF" stroke-width="0.75" stroke-miterlimit="10" stroke-linecap="round" stroke-linejoin="round"/>
<path d="M1054.08 14L1043.67 11.147C1020.93 6.79234 999.666 4.38978 976.325 3.63898L968 3.1885L986.138 -4.31949C1002.79 -11.6773 1017.06 -18.885 1032.82 -28.0447L1040.7 -33H1041.15C1083.07 -31.6486 1125.29 -25.3419 1167.22 -21.2875L1168.11 -20.8371H1169" stroke="#FFF3CF" stroke-width="0.75" stroke-miterlimit="10" stroke-linecap="round" stroke-linejoin="round"/>
<path d="M1059 15L1054 14" stroke="#FFF3CF" stroke-width="0.75" stroke-miterlimit="10" stroke-linecap="round" stroke-linejoin="round"/>
<path d="M1168.56 -21L1169.75 -20.5536C1212.15 -15.4948 1255.59 -9.09676 1297.09 0.574625L1302 1.76494H1301.55L1295.01 2.95527L1288.76 5.03834C1274.33 10.6924 1261.98 20.215 1249.49 28.9936L1243.69 32.267C1230.15 41.7896 1201.88 51.7586 1184.93 52.0561L1183.29 52.5025H1172.88C1147.74 53.6928 1123.49 52.3537 1098.5 52.5025H1090.61C1087.34 49.2291 1083.92 46.5509 1080.64 42.9799L1075.74 38.0698C1070.23 32.4158 1063.83 27.6545 1057.14 23.6372L1050.89 19.9174L1043.9 16.644L1036.91 13.817L1032 12.1803" stroke="#FFF3CF" stroke-width="0.75" stroke-miterlimit="10" stroke-linecap="round" stroke-linejoin="round"/>
<path d="M1054.4 159.494L1083.36 160.376L1112.61 160.816C1147.21 161.404 1181.81 160.669 1216.27 162.432L1224.88 163.314L1229.04 163.755C1259.33 166.546 1287.55 175.214 1316.95 181.678L1319.48 182.559L1322 183L1321.11 180.503C1318.14 174.038 1316.36 168.162 1312.79 161.698L1311.16 159.641L1310.27 158.466C1308.49 155.528 1306.11 153.03 1303.73 150.679L1302.84 150.239L1302.4 149.357L1293.34 149.798H1284.73C1225.92 149.21 1168.3 135.695 1109.64 132.169L1098.95 130.993L1088.26 129.377C1065.98 125.998 1040.29 121.15 1027.22 100.73L1023.95 95L1021.43 95.8815C1003.61 103.227 978.809 109.25 969.751 128.202L968.859 129.377L968.711 129.965C967.82 132.609 967.82 135.401 968.414 138.045L968.859 139.22L969.305 140.102C970.642 143.481 975.839 149.063 978.809 151.12L979.997 152.295L982.076 153.912L984.601 155.528" stroke="#FFF3CF" stroke-width="0.75" stroke-miterlimit="10" stroke-linecap="round" stroke-linejoin="round"/>
<path d="M985 155L1035.61 159.464L1054 160" stroke="#FFF3CF" stroke-width="0.75" stroke-miterlimit="10" stroke-linecap="round" stroke-linejoin="round"/>
<path d="M1571.45 96.4561H1573.08C1574.86 95.7156 1580.65 96.1599 1583.77 95.5675H1588.37L1590 95.1232L1583.77 93.0498L1580.5 91.4207L1576.79 90.2359C1548.45 79.1284 1519.66 70.5387 1491.32 60.1717L1487.16 58.9869L1483.45 57.3578L1476.92 54.8401L1471.58 52.7667L1465.79 50.249L1460 48.1756L1441.45 40.7706L1428.25 35.4391L1392.33 23.1468L1380.02 19L1373.79 19.4443L1367.55 19.8886H1359.69L1353.9 20.3329C1327.63 20.6291 1320.36 22.5544 1299.44 36.3276L1294.54 40.0301L1291.72 42.1035C1274.21 54.8401 1252.1 65.6514 1230.73 69.6501L1222.86 71.2792L1218.71 71.7235L1215 72.6121L1216.19 73.0564C1247.5 87.422 1273.77 110.674 1303.3 128.298L1308.19 132" stroke="#FFF3CF" stroke-width="0.75" stroke-miterlimit="10" stroke-linecap="round" stroke-linejoin="round"/>
<path d="M1308 132L1314.97 131.104L1322.39 130.656C1388.99 121.394 1434.68 96.1494 1504.25 97.7925H1517.45L1521.16 97.3444H1533.47L1546.67 96.8963L1571 96" stroke="#FFF3CF" stroke-width="0.75" stroke-miterlimit="10" stroke-linecap="round" stroke-linejoin="round"/>
<path d="M695 567L710.356 566.553L726.159 566.105L749.714 565.211L773.717 564.763L776.55 561.035C783.706 550.149 792.353 539.86 799.807 529.123L801 527.482H796.826C782.066 525.395 766.859 525.246 752.547 520.921L748.373 519.728L743.751 518.535C732.271 514.36 723.028 507.798 713.487 500.342L713.039 499.447L712.592 499L711.698 501.535C705.138 521.667 698.131 544.184 695.149 564.912L695 567Z" stroke="#FFF3CF" stroke-width="0.75" stroke-miterlimit="10" stroke-linecap="round" stroke-linejoin="round"/>
<path d="M756 647.662L755.556 647.216V646.324L753.481 639.784L752.593 636.513L751.704 632.797L751.259 631.162V627L750.815 624.919L751.259 620.014L751.704 615.405L752.148 610.5L753.333 605.892V605H750.074L726.963 605.892L711.704 606.338L696 606.784L696.889 611.689C699.111 623.878 703.259 635.622 703.852 648.108V649L714.222 648.554L724.889 648.108L737.63 647.662H756" stroke="#FFF3CF" stroke-width="0.75" stroke-miterlimit="10" stroke-linecap="round" stroke-linejoin="round"/>
<path d="M667 739L633.627 738.553C597.139 739.298 560.502 738.851 523.866 739H516.005V738.553C513.78 713.643 495.536 702.307 482.632 683.364L481 681.275L482.187 680.828H483.373C499.986 676.651 520.306 669.492 536.622 668L559.761 682.17C588.091 699.174 618.646 712.3 647.569 728.559L657.507 733.481L667 739Z" stroke="#FFF3CF" stroke-width="0.75" stroke-miterlimit="10" stroke-linecap="round" stroke-linejoin="round"/>
<path d="M651 779L648.182 781.827C635.13 794.772 620.298 807.865 604.131 816.644L594.638 822L588.409 819.917L581.883 818.727L571.946 816.644L562.453 814.561L553.406 812.924L544.803 811.734L539.908 804.294L536.201 798.938C531.751 792.689 527.746 786.588 523.89 779.893L523 779H527.598C567.348 779 607.097 779 646.699 779H651" stroke="#FFF3CF" stroke-width="0.75" stroke-miterlimit="10" stroke-linecap="round" stroke-linejoin="round"/>
<path d="M677.552 608L678.446 614.14C679.637 625.249 685.146 638.113 684.997 648.638V649.515L680.084 649.953C665.492 650.538 650.305 651.561 635.863 651.561L630.503 652V651.561C627.525 634.458 616.656 624.957 605.638 612.532L604 610.924H608.169C626.631 610.485 644.35 609.023 662.812 608.439L677.552 608Z" stroke="#FFF3CF" stroke-width="0.75" stroke-miterlimit="10" stroke-linecap="round" stroke-linejoin="round"/>
<path d="M702 135.021L700.816 134.582H699.928C679.507 128.571 658.79 123.44 638.665 116.697L634.966 115.084L630.083 113.471C615.285 107.901 599.747 102.183 585.245 95.8796L584.062 95.4398L582.434 95L579.622 98.665C570.004 110.393 554.91 127.398 542.184 136.634L541 137.807L555.058 138.686C603.003 142.058 651.54 138.247 699.484 135.021H702Z" stroke="#FFF3CF" stroke-width="0.75" stroke-miterlimit="10" stroke-linecap="round" stroke-linejoin="round"/>
<path d="M698 486.133L695.462 492.627C688.296 516.095 680.383 538.824 676.8 563.177L676.352 567.31L662.169 567.753C639.476 568.048 617.082 570.114 594.538 570.557L592 571L593.642 567.31L595.285 564.506C606.78 547.828 616.037 536.02 625.592 517.275L628.428 511.076L631.713 505.32C646.045 474.768 661.423 486.723 693.073 482L695.163 484.066L698 486.133Z" stroke="#FFF3CF" stroke-width="0.75" stroke-miterlimit="10" stroke-linecap="round" stroke-linejoin="round"/>
<path d="M468 -53.6962L470.517 -50.8872L473.035 -47.6347C490.211 -26.1978 500.429 -0.621351 510.054 24.6594L510.942 26.7292L520.419 29.5382L530.34 32.3472L546.036 37.2259L547.665 38.113L549.738 39L551.367 38.113L552.552 37.6694C610.006 14.0149 667.904 -6.68283 725.802 -28.859L750.531 -38.3208L763.265 -43.1995L776 -47.7826L772.742 -48.2261C666.275 -68.6281 577.133 -56.9487 470.517 -53.9919H468" stroke="#FFF3CF" stroke-width="0.75" stroke-miterlimit="10" stroke-linecap="round" stroke-linejoin="round"/>
<path d="M503.637 779L505.269 782.718C508.979 791.046 515.954 799.226 520.555 807.108L521 808L514.767 806.81L508.237 805.918C493.99 803.092 480.485 801.01 466.535 796.846L461.935 795.656L459.115 794.764C444.72 791.344 429.583 787.031 415.336 782.718H414.445L414 782.272L442.494 781.082L470.988 779.892L479.298 779.446H495.326L503.637 779Z" stroke="#FFF3CF" stroke-width="0.75" stroke-miterlimit="10" stroke-linecap="round" stroke-linejoin="round"/>
<path d="M862 287L827.635 284.148C739.865 275.891 652.094 268.686 565.067 254.875L549 252.023H551.083C629.928 238.062 714.575 215.545 795.056 219.448L806.66 219.898L807.106 221.549C821.387 244.967 839.09 268.085 860.512 285.349L862 287Z" stroke="#FFF3CF" stroke-width="0.75" stroke-miterlimit="10" stroke-linecap="round" stroke-linejoin="round"/>
<path d="M607 651L604.922 650.563H603.289C586.22 648.96 570.784 646.483 553.418 646.046H548.074L538.13 646.921H536.497L525.81 638.762L506.811 623.318L502.21 619.238L498.054 615.159L495.234 612.682L492.711 610.205L490.633 608.603L489 607H489.891L490.781 607.437L501.913 609.04L513.491 610.642L524.623 611.517L535.755 611.954L550.597 612.391H570.784L576.127 611.954L578.65 615.159C585.775 626.669 600.914 637.159 606.703 649.98L607 651Z" stroke="#FFF3CF" stroke-width="0.75" stroke-miterlimit="10" stroke-linecap="round" stroke-linejoin="round"/>
<path d="M581 51.0527L583.073 51.9412C616.84 58.1602 628.391 69.5619 659.196 81.1116L662.454 82L663.639 79.4827C671.488 58.3083 678.448 34.0243 687.482 13.5903L690 9L659.936 20.5497L630.317 31.6552L605.584 41.1318L581 51.0527Z" stroke="#FFF3CF" stroke-width="0.75" stroke-miterlimit="10" stroke-linecap="round" stroke-linejoin="round"/>
<path d="M746 359L748.86 360.209L752.172 361.419L756.387 363.535L760.602 365.198L774 372" stroke="#FFF3CF" stroke-width="0.75" stroke-miterlimit="10" stroke-linecap="round" stroke-linejoin="round"/>
<path d="M476.815 359L471.027 357.367L465.24 356.18L459.898 354.547L459.008 350.836L458.562 347.125C456.188 333.023 449.807 319.961 447.433 305.859L444.91 293.539C440.458 273.5 438.826 248.117 432.89 228.82L432.445 227.188L432 226L440.607 232.977C525.191 304.82 638.563 319.664 739.767 356.328L746 358.852" stroke="#FFF3CF" stroke-width="0.75" stroke-miterlimit="10" stroke-linecap="round" stroke-linejoin="round"/>
<path d="M483 361L477 359" stroke="#FFF3CF" stroke-width="0.75" stroke-miterlimit="10" stroke-linecap="round" stroke-linejoin="round"/>
<path d="M774 371.535L759.598 371.113C665.766 369.147 589.453 382.772 495.768 363.669L483 361" stroke="#FFF3CF" stroke-width="0.75" stroke-miterlimit="10" stroke-linecap="round" stroke-linejoin="round"/>
<path d="M531.438 165.793L502.482 163.247L497.582 162.348L487.633 161.449L483.03 161H482.584L475.16 163.846L467.29 166.692C462.39 168.789 457.489 170.587 452.886 172.983L451.698 173.433L450.51 174.331L449.619 175.23L448.431 175.679L445.165 177.327L441.452 179.424L437.295 181.971L428.979 186.614L425.267 188.711L423.633 189.61L422 190.808L428.534 195.751L435.067 200.395C449.619 208.633 488.672 244.733 505.6 242.935H507.679L510.204 242.486C599.447 227.207 693.59 201.294 783.873 202.042L795.455 202.492L807.483 203.391V202.941L807.928 202.042C811.938 196.35 813.72 194.403 819.956 190.359L822.778 188.262L826.044 186.614C834.508 181.222 844.606 178.076 853.218 172.833H854.109L855 172.384L849.654 170.736L844.309 169.538C812.086 159.802 778.082 162.648 744.82 162.049H729.08L713.785 162.947C664.189 165.194 616.969 170.736 567.224 167.89L549.405 166.992L531.438 165.793Z" stroke="#FFF3CF" stroke-width="0.75" stroke-miterlimit="10" stroke-linecap="round" stroke-linejoin="round"/>
<path d="M504.791 135L511.774 134.401C513.705 134.251 515.488 133.652 517.27 132.604L521.876 129.908L523.51 128.71L525.59 127.512L533.019 122.57C544.309 112.836 554.115 102.353 563.623 90.971L564.811 89.7729L566 88.1256L561.395 87.2271C548.172 86.3285 539.11 79.7391 528.413 73.8985L526.779 73L526.333 73.4493H525.887L491.123 89.3237L478.792 95.1643L466.461 101.454L454.427 107.744L442.096 114.333L431.4 120.174L421 126.014L440.016 128.111L459.033 130.657L477.158 132.754L495.728 134.401L500.334 134.85L504.791 135Z" stroke="#FFF3CF" stroke-width="0.75" stroke-miterlimit="10" stroke-linecap="round" stroke-linejoin="round"/>
<path d="M839.201 -36.1704L827.504 -37.7963C824.247 -38.2397 820.842 -37.9441 817.732 -37.0573L810.477 -34.8402L804.703 -33.2144L781.606 -25.5286L758.953 -17.2517L737.484 -8.97471L716.459 -0.697739L714.831 1.37149L713.202 3.88415L709.5 9.20505L706.687 14.9694L703.874 19.8469L701.357 25.1678C693.806 44.0866 687.884 63.5965 680.777 82.6631L679.888 84.7324L679 87.245L685.515 88.8708L691.733 90.9401L703.726 93.7483L715.275 97V95.8176C728.304 29.4541 816.104 5.50998 863.927 -30.4061L866 -32.4754L861.114 -32.9188L856.228 -33.8056L847.937 -34.6924L839.201 -36.1704Z" stroke="#FFF3CF" stroke-width="0.75" stroke-miterlimit="10" stroke-linecap="round" stroke-linejoin="round"/>
<path d="M733.855 434.748L742.483 435.905L751.558 437.062L763.608 438.653L769.856 439.521L785.923 441.979C813.296 446.463 841.859 450.512 865.364 466.132L867 467L859.562 466.566L852.57 465.698C829.362 463.963 804.37 459.335 781.46 458.901L779.377 458.467H774.468L769.112 458.033L763.31 457.599L750.516 457.165H737.722L712.135 458.033L702.614 458.467L693.539 458.901L691.456 457.31L689.82 455.719L686.101 453.26C677.621 446.752 666.612 440.244 656.348 437.207L651.438 435.182L644 433.591L659.323 432.434L674.646 432H690.415L705.738 432.868H710.647" stroke="#FFF3CF" stroke-width="0.75" stroke-miterlimit="10" stroke-linecap="round" stroke-linejoin="round"/>
<path d="M710 432L734 434" stroke="#FFF3CF" stroke-width="0.75" stroke-miterlimit="10" stroke-linecap="round" stroke-linejoin="round"/>
<path d="M777 740.665L776.11 736.513C771.066 714.269 779.225 688.91 765.725 668.89V668.445H764.093C698.963 665.776 637.542 678.381 572.264 668H569L580.127 674.228L591.254 680.012C616.92 693.507 643.18 706.112 668.846 720.052L682.495 727.022L688.726 730.285L695.254 733.547L699.853 736.068L704.452 738.144L705.639 738.589L706.529 739.034L713.502 739.479H720.475L741.097 740.369L761.719 741.555L768.247 742H774.775L777 740.665Z" stroke="#FFF3CF" stroke-width="0.75" stroke-miterlimit="10" stroke-linecap="round" stroke-linejoin="round"/>
<path d="M884.161 682.383L888.767 682.831C953.541 688.948 970.923 707.597 1022.18 744.149L1025 746.238H1021.73C975.974 748.327 930.067 748.327 884.161 747.432L866.779 746.984L848.951 746.089H845.237L828.747 745.194L811.81 744.299L795.468 743.702L794.428 733.855C790.268 714.907 795.765 688.649 787.446 671.194L787 670H787.446C818.644 672.387 850.437 678.504 881.636 681.637L884.161 682.383Z" stroke="#FFF3CF" stroke-width="0.75" stroke-miterlimit="10" stroke-linecap="round" stroke-linejoin="round"/>
<path d="M450.173 388L458.753 392.895C489.078 410.844 523.545 424.788 557.42 434.133L566 436.655L562.302 439.176C513.634 479.376 485.971 494.21 474.729 558.737L473.841 562L473.398 561.555H472.954L466.445 559.033L459.492 556.512L452.984 553.99L446.031 551.171L439.522 548.353L432.57 545.09L427.688 542.568L427.244 541.678L424.73 534.261L422.659 527.734L418.073 504.593C415.706 488.87 415.114 472.552 417.629 456.68L419.256 449.263C424.582 430.573 433.161 417.519 442.629 401.054L445.144 396.9L450.173 388Z" stroke="#FFF3CF" stroke-width="0.75" stroke-miterlimit="10" stroke-linecap="round" stroke-linejoin="round"/>
<path d="M1561 834L1568.01 833.059C1593.21 829.767 1618.56 829.296 1643.9 830.864L1653 831.805" stroke="#FFF3CF" stroke-width="0.75" stroke-miterlimit="10" stroke-linecap="round" stroke-linejoin="round"/>
<path d="M1644 802.792C1616.98 801.364 1593.81 801.883 1566.79 804.221L1561 805" stroke="#FFF3CF" stroke-width="0.75" stroke-miterlimit="10" stroke-linecap="round" stroke-linejoin="round"/>
<path d="M1561 767H1569.27C1590.23 768.071 1611.19 769.857 1632 772" stroke="#FFF3CF" stroke-width="0.75" stroke-miterlimit="10" stroke-linecap="round" stroke-linejoin="round"/>
<path d="M1562 727H1561.25H1561" stroke="#FFF3CF" stroke-width="0.75" stroke-miterlimit="10" stroke-linecap="round" stroke-linejoin="round"/>
<path d="M1653 587L1651.81 586.55C1627.33 575.6 1599.28 566.15 1573.46 558.2L1566 555.65L1572.27 555.2L1578.09 554.3L1613.01 551" stroke="#FFF3CF" stroke-width="0.75" stroke-miterlimit="10" stroke-linecap="round" stroke-linejoin="round"/>
<path d="M1561 246L1562.64 246.441L1564.27 246.735L1596.84 256.588L1630 266" stroke="#FFF3CF" stroke-width="0.75" stroke-miterlimit="10" stroke-linecap="round" stroke-linejoin="round"/>
<path d="M1630 85L1632.78 85.625L1636 86" stroke="#FFF3CF" stroke-width="0.75" stroke-miterlimit="10" stroke-linecap="round" stroke-linejoin="round"/>
<path d="M447 826C417.588 821.465 388.324 816.023 358.618 813H357" stroke="#FFF3CF" stroke-width="0.75" stroke-miterlimit="10" stroke-linecap="round" stroke-linejoin="round"/>
<path d="M357 859H361" stroke="#FFF3CF" stroke-width="0.75" stroke-miterlimit="10" stroke-linecap="round" stroke-linejoin="round"/>
<path d="M357 834H357.443L365.996 834.69L374.255 835.793L398 838.965H397.557L396.82 839.379L389.004 839.655L380.745 840.483L372.633 840.897L364.374 841.586H360.687L357 842" stroke="#FFF3CF" stroke-width="0.75" stroke-miterlimit="10" stroke-linecap="round" stroke-linejoin="round"/>
<path d="M436 713C411.989 702.185 388.57 690.333 365.597 677.593L357 673" stroke="#FFF3CF" stroke-width="0.75" stroke-miterlimit="10" stroke-linecap="round" stroke-linejoin="round"/>
<path d="M94.4652 491.363L84.5066 486.441L74.5479 481.818L68.7511 479.283L62.5083 477.195L57.1575 475.554L51.3606 473.466L40.6588 470.632L29.0651 468.097L6.76956 463.921L2.16186 463.474L-2 462.579L4.54001 461.684C57.4547 452.885 112.45 451.841 164.919 464.219L167 465.114L166.554 469.738C164.473 491.214 162.987 515.225 164.919 536.553V537L156.298 530.736C144.259 522.533 132.516 514.181 120.328 506.277L117.801 504.636" stroke="#FFF3CF" stroke-width="0.75" stroke-miterlimit="10" stroke-linecap="round" stroke-linejoin="round"/>
<path d="M118 505L94 491" stroke="#FFF3CF" stroke-width="0.75" stroke-miterlimit="10" stroke-linecap="round" stroke-linejoin="round"/>
<path d="M185.011 846L182.936 844.388C177.007 839.112 169.448 836.62 163.52 831.344L161 829.292H165.595C241.038 829.585 316.332 825.921 391.034 838.232L398 839.112H397.555L396.666 839.551C374.73 841.017 352.794 843.215 330.709 843.215L322.409 843.655H314.109C276.165 844.828 238.221 845.267 200.426 845.707H192.57L185.011 846Z" stroke="#FFF3CF" stroke-width="0.75" stroke-miterlimit="10" stroke-linecap="round" stroke-linejoin="round"/>
<path d="M96 163L144.267 157.566L163.723 155.453L192.98 152.434L222.683 150.472L237.683 149.113L252.832 148.66L268.129 147.906L282.98 147.453L301.99 147L321 147.453" stroke="#FFF3CF" stroke-width="0.75" stroke-miterlimit="10" stroke-linecap="round" stroke-linejoin="round"/>
<path d="M321 148L312.38 150.812L303.76 154.069C254.417 170.055 218.302 191.963 173.567 216.979L167.027 220.235C127.345 241.254 81.272 255.612 39.8064 273.671L33.2669 276.188L27.0248 279L26.5789 278.112L26.1331 277.668C18.1075 254.872 21.0799 234.149 -8.64456 227.932L-11.9143 227.044L-15.6298 226.156H-16.8188C-24.5472 224.084 -33.4645 222.011 -39.5581 216.682L-40.4497 216.238L-41.3415 215.35C-47.8809 208.541 -52.191 196.255 -57.3927 188.558L-61.5542 182.785L-62 182.341L-38.0718 179.529L-13.6977 176.272L40.8467 169.315L95.837 162.802" stroke="#FFF3CF" stroke-width="0.75" stroke-miterlimit="10" stroke-linecap="round" stroke-linejoin="round"/>
<path d="M187.851 358.561L192 349.037C179.108 309.307 150.063 300.379 161.029 252.613L162.215 248L158.065 249.637L145.322 255.44L132.578 260.797L103.681 272.404L97.1613 274.933L90.6411 277.761L72.5625 285.201L48.7046 295.171L46.63 295.617L45 296.51L48.2601 299.04C89.3075 324.931 126.354 350.228 164.437 380.584L177.626 391" stroke="#FFF3CF" stroke-width="0.75" stroke-miterlimit="10" stroke-linecap="round" stroke-linejoin="round"/>
<path d="M178 391V390.115L180.857 379.498L184.429 368.733L188 359" stroke="#FFF3CF" stroke-width="0.75" stroke-miterlimit="10" stroke-linecap="round" stroke-linejoin="round"/>
<path d="M183.544 470L183.095 472.828V476.102C182.048 485.181 181.449 493.515 181 502.594V523.281L181.449 534.89L183.095 550.666L185.639 552.749L188.184 554.386L191.476 556.916L194.32 559V555.279C196.116 530.574 195.218 504.082 201.803 479.972L203 476.697L200.156 475.507L197.612 474.614L190.578 472.084L183.544 470Z" stroke="#FFF3CF" stroke-width="0.75" stroke-miterlimit="10" stroke-linecap="round" stroke-linejoin="round"/>
<path d="M204 364L200.226 373.476C194.491 389.319 191.17 405.902 188.906 422.485L188 429" stroke="#FFF3CF" stroke-width="0.75" stroke-miterlimit="10" stroke-linecap="round" stroke-linejoin="round"/>
<path d="M289.214 359.842L296.637 349.891C305.396 336.822 314.155 321.525 322.172 307.713L327.962 298.653C344.886 271.921 364.334 246.673 379.922 218.901L381.109 216.079L382 214L381.109 214.446L379.922 215.337L377.101 216.97L372.202 220.238L371.311 220.683L370.866 221.129L369.233 222.02L368.045 223.208L366.412 224.099L363.888 225.733C346.222 235.832 329.001 246.673 311.483 257.069L301.536 263.307C267.094 284.396 233.098 309.495 213.204 345.436L208.602 354.495L204 364" stroke="#FFF3CF" stroke-width="0.75" stroke-miterlimit="10" stroke-linecap="round" stroke-linejoin="round"/>
<path d="M188 429.792L199.173 433.079L210.345 436.815L221.965 441L225.242 436.815C243.565 413.95 262.186 390.487 281.552 368.668L289 360" stroke="#FFF3CF" stroke-width="0.75" stroke-miterlimit="10" stroke-linecap="round" stroke-linejoin="round"/>
<path d="M42.2507 846.094L13.0437 847H4L5.18605 846.547C13.192 840.201 19.5671 835.367 26.6836 827.662L27.8696 826L78.1294 827.662L103.63 828.568L128.834 829.022H133.726L138.322 829.475L139.508 831.137L140.695 833.252L143.956 837.482L147.663 841.712L150.48 844.281L153 846.396H148.256C112.97 845.942 77.5363 845.187 42.2507 846.094Z" stroke="#FFF3CF" stroke-width="0.75" stroke-miterlimit="10" stroke-linecap="round" stroke-linejoin="round"/>
<path d="M92.5416 134.614L37.61 141.124C-46.272 152.516 -130.748 160.95 -214.184 175.745L-232 179L-229.476 175.301L-227.398 171.158C-193.548 94.3698 -219.084 102.211 -127.927 90.523L-111.002 89.3393L-102.688 88.8954L-94.8196 88.4516C-71.2139 87.7118 -44.6389 87.5639 -21.3301 90.523L-14.7977 90.9668L-7.81988 91.4107C67.4512 98.2166 143.168 102.655 217.993 113.604L227.495 115.231L241.599 117.747L256 120.262L221.26 121.889L191.567 124.405L161.429 126.92L141.238 128.843L92.5416 134.614Z" stroke="#FFF3CF" stroke-width="0.75" stroke-miterlimit="10" stroke-linecap="round" stroke-linejoin="round"/>
<path d="M-46.0089 54.2149L-36.5051 53.029L-27.0013 51.3983C25.2699 42.3555 77.2441 30.7925 130.258 28.2724H145.553C195.151 27.8276 248.759 37.0187 297.912 30.7925H300.733L304 30.3478L294.942 28.7171L290.338 28.2724C233.315 19.526 174.956 9.14901 117.338 4.84996L107.389 3.9605C67.2947 1.29213 27.6459 0.254423 -12.3 -3.45166L-15.5669 -3.89639L-22.9918 -4.78585L-30.8622 -5.6753L-38.7326 -6.86125C-67.8381 -10.2708 -96.9436 -15.3111 -125.901 -19.6102L-136.593 -21.2408C-186.339 -28.3565 -235.046 -37.5476 -284.051 -48.3693L-293.109 -50H-294L-291.476 -47.9246L-289.397 -45.4045C-267.122 -20.4996 -252.124 11.0762 -228.364 34.2021L-225.84 36.7222L-223.761 38.3529L-222.127 39.9836L-220.048 41.1695L-217.969 42.8002L-215.89 43.9861L-214.257 45.6168L-212.178 46.8028H-211.732L-210.841 47.2475H-209.208L-208.02 47.6922H-206.832L-205.198 48.1369L-203.565 48.5817H-201.486C-173.865 53.6219 -145.799 56.1421 -117.733 55.9938H-80.1634" stroke="#FFF3CF" stroke-width="0.75" stroke-miterlimit="10" stroke-linecap="round" stroke-linejoin="round"/>
<path d="M403 574.753L402.106 574.306C343.075 544.977 286.279 510.883 225.609 484.829L219.05 482L218.155 484.531L217.261 487.36C212.789 505.821 213.087 525.027 211.894 543.637V547.806L211.447 551.974L211 558.972V571.775L214.727 575.051L218.901 578.326L245.435 599.914L257.062 609.442L269.137 618.524L274.503 622.246L279.87 626.415L284.789 624.777C334.727 613.313 366.776 615.993 402.851 655" stroke="#FFF3CF" stroke-width="0.75" stroke-miterlimit="10" stroke-linecap="round" stroke-linejoin="round"/>
<path d="M309.754 361L306.03 365.905C283.836 392.214 262.386 417.928 240.638 444.831L239 447.358L248.086 451.52L266.706 459.843L284.878 468.464L307.222 479.612L329.565 491.206L380.955 518.406L390.488 523.757L402.106 529.554L402.553 530H403" stroke="#FFF3CF" stroke-width="0.75" stroke-miterlimit="10" stroke-linecap="round" stroke-linejoin="round"/>
<path d="M30.7535 64.0821C71.2675 56.8105 111.336 50.1325 153.334 50.7261L168.175 51.1713L183.015 52.0617C241.486 56.2169 290.014 59.3333 347.297 45.5321L358.873 43.0093L369.706 39.7444L379.055 41.3768C391.521 43.6029 403.987 45.5321 416.453 47.6097L421.054 48.3517L426.99 49.3905C431.887 50.2809 436.784 51.1713 441.682 52.0617L449.992 53.6941L464.09 56.5137L492.139 63.0433L492.584 63.4885H493.029L487.241 66.0114C462.755 77.5866 440.791 88.5683 417.047 101.924L402.652 110.532L394.786 115.132L387.366 119.732L383.211 122.255L370.448 121.365H370.151C367.628 121.216 365.254 121.068 362.731 120.92L357.685 120.623L357.092 120.474L356.795 120.178V120.474L350.265 118.99L342.845 116.913L323.404 112.758L304.409 108.602L286.304 104.892L267.753 101.182L249.203 97.9175L231.098 95.0979C168.62 85.3034 75.4228 79.5158 40.9933 75.0638M402.503 856.097L400.425 856.542H398.348L390.483 857.432C321.772 862.33 251.874 862.33 183.015 863.22H148.289C125.138 862.775 102.135 862.923 78.9845 862.33L70.3771 862.775H52.2719L19.3264 863.665H13.9839L8.64142 864.11H-8.72175L-41.3704 864.556L-74.0191 865.001L-75.2063 864.556L-76.8387 864.11L-78.4712 863.22L-79.6584 862.33L-80.8457 860.697L-81.736 859.51L-82.1813 857.878V854.613C-81.7361 851.348 -78.768 848.825 -75.6515 848.083L-74.0191 847.638H-50.1262L-25.7881 847.193L-23.7105 846.006L-22.078 844.373L-18.8131 842.296L-15.5483 839.773L1.81487 827.455L4.33774 825.823H1.07286L-2.19203 825.378H-13.0254C-86.4849 823.597 -135.31 829.088 -206.098 847.638L-217.228 849.716L-227.913 851.793L-239.043 853.871C-272.582 858.323 -305.528 858.471 -339.364 858.471H-359.547L-379.729 858.916C-419.353 859.658 -453.783 858.026 -493.258 854.316L-505.278 853.129L-506.911 852.684L-508.988 851.793L-510.621 850.606L-512.253 848.974L-513.144 847.044C-516.112 841.85 -513.589 835.617 -508.543 832.946L-506.911 832.501L-504.833 832.056C-478.269 834.875 -453.041 836.805 -426.476 837.844H-404.661C-366.522 824.784 -346.042 795.253 -305.231 782.935L-296.921 780.412L-289.5 778.78L-292.765 776.257L-296.03 774.18L-299.74 771.36L-303.45 768.837C-310.277 763.94 -317.103 760.675 -324.078 755.184L-328.679 752.365L-335.654 747.022L-351.236 735.892H-366.076C-410.746 737.228 -446.659 733.518 -490.29 744.945L-491.922 745.39H-497.71C-507.801 743.312 -515.37 734.853 -514.628 724.317V722.685L-514.183 720.607C-509.73 700.573 -479.011 703.541 -462.538 699.089L-454.228 697.902L-444.285 697.011L-433.897 696.566L-434.342 696.121L-440.129 689.591C-453.783 672.97 -465.061 653.53 -478.863 637.651L-480.495 636.167L-489.102 627.56L-491.625 625.927L-493.703 624.295L-498.6 621.03L-501.123 619.843L-502.31 618.952L-503.498 618.507L-506.02 619.398L-508.543 619.843H-511.511L-514.034 618.952L-516.557 617.765L-519.08 616.133L-520.564 614.204L-521.751 612.126L-522.642 609.603L-523.087 607.08V604.261L-522.642 601.441L-521.454 598.918L-519.822 596.841C-514.776 590.905 -485.392 579.181 -479.011 575.768L-463.28 569.238L-448.44 563.451C-395.609 545.197 -340.996 536.145 -289.055 514.478L-265.607 505.426L-257.742 502.606L-249.877 499.341L-251.954 498.896L-254.032 498.451L-257.742 497.561C-293.359 489.992 -327.937 491.328 -361.327 472.036L-365.928 469.513L-370.825 466.693L-375.426 463.428C-391.008 451.853 -404.958 438.497 -415.049 421.728L-419.947 413.863L-424.547 405.997L-428.257 397.39L-431.077 390.415L-433.6 383.44L-435.677 382.55L-438.2 381.66L-440.278 380.769L-442.356 380.324L-445.175 379.434L-448.44 378.988L-451.26 378.543H-461.203C-468.623 379.434 -475.895 381.214 -482.276 385.073L-484.799 386.26L-488.509 389.08C-498.007 395.758 -500.233 403.475 -506.614 409.262L-508.692 410.449L-510.769 411.34H-515.518C-521.306 409.262 -524.126 406.591 -524.571 400.21V397.687L-523.68 395.609C-517.893 385.221 -506.911 373.498 -496.819 367.116L-493.555 365.039L-489.844 362.961L-485.689 360.884L-481.089 359.251M402.503 796.291L399.98 795.401L394.193 793.769L388.85 791.246L378.907 787.09L375.642 785.903L372.823 784.271L367.925 784.716H363.028L352.343 785.606C313.016 787.239 272.947 787.981 233.472 788.129L211.657 787.684H193.255C125.88 785.161 58.3564 782.638 -8.87017 779.819H-11.6898L-59.1788 804.602H-22.82C38.7672 804.899 100.355 808.757 162.09 808.757H189.248C251.874 808.46 314.797 806.976 376.978 815.287L389.741 817.364L402.503 818.997M402.503 722.388L395.528 719.123C359.169 701.315 321.772 680.242 287.491 658.872L273.392 649.375L267.16 651.452L260.927 653.085C230.059 661.543 197.558 663.027 167.729 673.712L159.122 676.977L150.515 680.687L142.204 684.397C126.028 691.52 109.852 702.205 95.1604 712L77.0552 726.84C72.7516 731.737 66.3702 735.447 62.6601 740.938L61.7697 741.383L60.8793 742.273L76.9068 743.164C183.015 748.655 284.82 749.99 390.928 743.609L402.503 742.719M402.503 742.57L422.686 741.68L443.314 740.493L440.791 739.602L427.138 733.815L413.93 728.027L402.355 722.239M453.257 827.159L481.305 830.869L482.938 831.314H485.015L506.83 833.837L529.091 835.914L550.906 837.547L573.167 838.734L583.852 839.179L594.24 839.624L585.929 837.102C525.826 824.636 464.536 817.513 406.065 797.924L402.355 796.291M402.503 818.848L406.658 819.739L410.814 820.184L428.622 823.003L446.727 825.823L449.992 826.268L453.257 827.159M1055.62 834.134L1026.39 838.289L997.154 841.999C881.696 856.542 759.561 853.871 642.768 860.104H594.537L572.276 859.213L549.571 858.026L526.865 856.394L504.604 854.316L481.899 851.793L480.266 851.348H478.634L451.773 849.27L437.378 851.793L423.28 853.426L402.652 855.948M1606.79 301.078L1604.72 300.633L1602.64 300.188L1582.01 293.955L1561.38 287.425L1525.02 276.74L1503.95 282.083C1444.29 295.736 1385.67 312.357 1325.72 324.525L1320.38 325.713L1323.2 326.603C1336.7 330.461 1350.2 334.913 1363.56 338.92L1365.64 339.811M1548.17 114.242L1530.81 115.132H1519.24L1516.42 115.577H1509.89C1497.42 115.874 1484.81 116.022 1472.34 116.764L1463.73 117.655H1461.66L1459.58 118.1L1460.02 118.545V118.99C1473.23 139.767 1491.63 154.458 1500.83 177.609L1501.28 179.241L1502.17 181.319L1502.62 183.396C1504.4 190.816 1504.25 199.72 1505.88 207.289L1506.33 208.921L1506.77 211.741L1507.66 215.006L1509.74 220.793L1512.56 227.026L1513.75 229.549L1515.38 232.369L1539.72 239.789L1564.5 246.763L1586.02 253.293L1607.09 259.526M1606.79 111.719H1605.16L1603.08 112.164H1599.37C1591.66 112.312 1583.94 113.054 1576.22 113.351L1548.17 114.242M1606.79 -15.3122L1591.95 -21.0999L1577.11 -26.4423L1536.75 -42.1728L1525.17 -37.2755C1490 -22.7323 1455.13 -8.931 1420.84 7.68988L1419.66 8.13509L1427.97 10.9547C1486.14 34.9956 1543.13 53.2489 1601.6 75.3606L1606.94 76.993M842.667 -68.5881L863.295 -73.4853C875.909 -77.0469 888.078 -78.5309 900.841 -80.9053L912.861 -82.9829L924.437 -84.1702L936.457 -85.3574C992.999 -92.0354 1044.35 -79.8665 1100.29 -82.8346L1111.87 -83.725L1123.89 -84.6154L1135.91 -85.8026L1147.93 -86.9898L1162.33 -88.177L1176.72 -89.8094L1205.96 -92.3322C1240.68 -95.4486 1274.82 -97.081 1309.54 -100.939L1316.07 -101.83L1322.6 -103.462C1329.73 -104.353 1337 -107.024 1343.23 -110.882L1346.05 -112.069L1349.31 -114.592L1349.76 -115.038L1350.2 -116.67L1351.1 -118.748L1351.99 -120.38L1352.88 -122.458L1355.7 -125.277L1357.33 -126.464C1360.3 -128.097 1362.97 -129.136 1365.94 -130.62L1368.01 -131.065L1370.54 -131.955H1372.17L1374.25 -132.4H1381.22C1385.97 -131.51 1388.79 -131.362 1393.54 -129.878L1394.73 -128.987L1395.91 -128.542C1400.96 -127.355 1402.59 -125.277 1407.04 -123.942L1407.49 -123.496L1408.38 -123.051L1411.64 -121.864C1453.35 -102.869 1498.46 -93.0742 1541.2 -76.8985L1564.65 -68.2913L1587.8 -59.2388L1606.79 -51.8188M-79.51 -53.3028L-73.7223 -52.4124L-67.9346 -51.522L-41.5188 -47.812L-28.3109 -45.7344C-14.361 -44.2504 -0.559594 -43.0632 13.3903 -41.5791L21.7009 -41.134L36.9864 -40.2436L52.2719 -39.3531L58.0596 -40.9856L67.1122 -44.2504L75.4228 -48.4056L79.5781 -50.9284L83.2881 -53.006L88.1855 -55.8256C114.304 -72.8917 129.145 -74.8209 158.677 -78.9761L161.942 -79.8665L163.574 -80.3117L165.207 -80.7569C185.538 -87.1382 203.346 -99.9006 224.568 -104.204L231.098 -105.391L237.331 -106.579C282.297 -112.069 315.539 -98.4166 356.498 -88.6222V-88.7706L357.092 -88.4738C360.208 -87.7318 363.473 -86.9898 366.738 -86.2478L375.049 -84.6154L384.992 -82.8346C387.218 -82.5377 389.592 -82.0925 391.818 -81.7957L402.355 -80.4601L408.884 -79.5697L425.802 -77.9373L435.449 -77.1953C438.862 -77.0469 442.275 -76.7501 445.688 -76.6017H448.211V-76.4533C514.251 -74.9693 580.142 -84.0218 646.329 -82.6862L660.428 -82.2409L674.823 -81.3505C722.757 -79.5697 770.246 -72.1497 817.141 -62.8005L842.667 -67.6977M402.503 574.729L416.156 581.259L430.551 587.788L433.371 596.099C441.385 617.468 444.65 640.322 451.476 662.137L452.663 665.847H451.031C434.558 667.628 415.414 667.034 402.8 655.162M309.603 360.884L313.758 354.354C327.411 332.539 339.877 309.982 354.124 288.316L359.466 279.708L365.254 271.398L376.829 254.035C383.211 244.389 388.108 237.117 393.747 227.175L395.38 223.91L396.567 221.09C398.348 217.677 399.98 214.115 401.167 210.405L402.058 209.218L402.503 208.328L403.394 209.515C415.859 227.768 420.163 272.437 425.209 292.916L426.841 300.781L427.732 304.491C430.255 323.041 438.12 335.21 440.94 353.612L441.385 356.877V359.696V363.852L440.94 364.742V365.929L440.494 366.82L440.049 368.452L439.604 370.53L438.714 372.162L438.268 374.24L436.636 377.059C434.261 382.995 428.77 390.564 425.506 396.5L420.608 404.81L416.008 413.417C399.683 441.317 397.012 466.248 399.98 498.451L400.425 503.051L401.316 507.949L406.213 531.841L404.136 530.654L402.503 529.764M190.138 233.704L197.41 229.697C231.246 210.554 262.856 191.855 300.105 179.389L311.235 175.234L323.998 170.634L337.206 166.033L347.594 161.878L357.982 158.168L362.88 156.091L367.777 154.458L371.042 152.826L374.307 151.639L375.939 150.748L377.126 150.303L397.012 151.935L399.535 152.381H401.167L411.853 153.419L424.318 154.903L446.579 157.426H446.134V157.871L444.056 158.762L441.533 159.652L440.643 160.097L440.346 160.394C440.049 160.543 439.604 160.839 439.307 160.988H439.01L438.714 161.285C438.268 161.581 437.823 161.73 437.378 162.027L436.636 162.175L435.449 163.065C434.707 163.511 434.113 163.807 433.371 164.253L432.184 164.698C427.88 167.369 423.428 169.892 418.827 172.415C417.343 173.305 415.859 174.047 414.375 174.937L408.588 178.202L402.355 181.912L397.012 184.732L392.115 187.997L388.405 190.074L385.14 192.152L383.508 193.339C383.062 193.488 382.766 193.636 382.32 193.784H382.172C381.578 194.081 381.133 194.378 380.688 194.675L380.243 194.972L379.352 195.862C378.907 196.159 378.61 196.456 378.165 196.604L376.978 197.494L376.087 197.94C375.642 198.385 374.752 199.127 373.565 199.869L372.377 200.462C371.339 201.056 370.3 201.65 369.261 202.243C367.777 202.985 366.441 203.727 365.699 204.172L362.88 205.805L360.505 207.437C347.891 215.006 335.128 222.574 322.514 230.143L318.359 232.665L314.649 234.743L307.674 239.343C283.781 253.887 260.481 268.727 240.002 286.832M402.503 696.863L412.891 702.205C438.12 714.226 462.755 724.762 489.616 732.776L498.223 735.299L497.333 733.666C495.403 725.653 491.99 723.13 487.835 717.194L485.015 714.374L483.828 712.296C476.705 704.134 469.136 696.121 463.645 686.772L463.2 686.326L462.755 685.436L456.967 686.326C439.159 687.959 420.163 688.849 403.69 680.539L403.097 680.39C402.058 679.945 401.168 679.5 400.277 678.758C361.247 650.265 364.215 634.386 306.635 641.361L302.925 642.251L308.267 645.516C338.393 664.066 368.964 679.945 400.277 696.269L402.503 696.863ZM482.938 19.7103C471.807 17.0391 460.084 14.5163 448.211 12.2903L446.876 12.1419C441.533 11.1031 436.042 10.2127 430.7 9.17389L427.88 8.58029L418.531 7.09628C417.343 6.94788 416.305 6.65107 415.117 6.50267L407.4 5.31547L400.871 4.12826L397.012 3.23786C395.528 3.08946 394.044 2.79266 392.412 2.64426L391.225 2.49586L373.861 -0.0269487L356.498 -2.84656V-2.25296C275.915 -14.125 193.997 -29.8555 113.859 -35.7915L100.206 -36.6819L101.839 -37.8691L108.071 -41.5791C123.209 -50.3348 134.042 -52.7092 150.96 -54.7868L155.115 -55.6772L159.271 -56.1224C177.821 -59.2388 189.99 -66.3621 206.76 -73.9305L214.18 -77.1953L216.257 -78.0857C267.456 -97.6746 320.139 -72.1497 370.596 -62.3553L379.501 -60.8712C387.218 -59.5356 395.083 -58.4968 402.948 -57.6064L403.987 -57.3096H405.323C410.22 -56.716 415.266 -56.2708 420.163 -55.8256L421.647 -55.6772L425.209 -55.3804C429.216 -55.0836 433.223 -54.7868 437.229 -54.49H438.12L439.307 -53.3028L440.494 -52.4124L448.805 -44.102L453.702 -38.3143C466.02 -23.4743 474.033 -7.74379 481.305 9.91589L483.828 15.2583L485.906 20.6007L482.938 19.7103Z" stroke="#FFF3CF" stroke-width="0.75" stroke-miterlimit="10" stroke-linecap="round" stroke-linejoin="round"/>
<path d="M190.138 233.703L189.1 234.148L186.28 238.304C164.761 274.959 179.157 290.541 198.597 321.705L200.675 325.415L202.753 329.57L203.643 327.938C214.031 312.059 226.349 298.703 240.002 286.682" stroke="#FFF3CF" stroke-width="0.75" stroke-miterlimit="10" stroke-linecap="round" stroke-linejoin="round"/>
<path d="M30.7536 64.082C18.7329 66.308 6.56387 68.3856 -5.60518 70.6117H-6.05037L-6.49561 71.0569L16.6553 72.6893L39.3609 74.7669C39.8061 74.7669 40.2514 74.7669 40.6966 74.9153" stroke="#FFF3CF" stroke-width="0.75" stroke-miterlimit="10" stroke-linecap="round" stroke-linejoin="round"/>
<path d="M36.1954 741L13.9169 740.111L-8.80722 739.223H-15.0452L-21.5802 738.779C-40.7397 738.038 -60.1963 737.446 -79.3559 737.594H-84.7027C-99.555 727.672 -113.962 717.898 -128.517 707.532L-135.943 702.201L-142.924 696.426L-146.191 693.908C-166.985 675.101 -191.343 663.255 -210.948 644.892L-212.581 643.263L-214.215 641.19L-218.374 635.414C-228.919 613.497 -235.454 596.468 -250.603 576.18L-252.683 572.922L-255.208 569.22C-261.594 561.963 -260.406 553.226 -261 544.045V540.787L-260.554 536.641V532.938L-256.396 531.309L-245.702 527.163C-193.273 506.875 -135.943 487.772 -81.2866 474.444L-80.0985 474H-79.2073L-73.4149 475.185L-67.1769 476.369L-56.0377 478.443L-44.4528 480.072L-31.6798 481.7L-18.4612 483.774C-1.52957 485.551 18.6696 488.957 35.1557 492.807L45.5524 495.621L50.4537 496.805L55.3549 498.434L60.7018 500.507L65.603 502.581L83.7229 510.874L106.001 524.053C113.279 528.2 121.002 533.827 127.834 538.418L134.369 543.008L154.569 557.077C171.797 569.22 188.432 582.251 204.472 595.727L218.137 606.389L231.355 617.052L252 633.489L249.921 633.933L247.396 634.822C198.383 644.448 169.569 646.076 123.973 669.77L115.358 674.657L104.219 680.877L93.5255 687.837C77.782 698.055 61.5929 710.642 48.9684 724.414H48.5228L48.0773 724.859C44.8098 728.561 41.8393 732.559 38.5718 736.409L36.938 739.667L36.1954 741Z" stroke="#FFF3CF" stroke-width="0.75" stroke-miterlimit="10" stroke-linecap="round" stroke-linejoin="round"/>
<path d="M104 356L117.615 366.007C131.082 376.013 144.106 386.318 157.573 396.325L174 409.617L173.112 413.799L172.224 419.623L171.336 425" stroke="#FFF3CF" stroke-width="0.75" stroke-miterlimit="10" stroke-linecap="round" stroke-linejoin="round"/>
<path d="M-198.536 351.41L-203.872 339.418C-225.365 287.304 -251.009 251.327 -301.555 222.901L-302 222.457L-285.102 219.2L-268.648 215.499L-257.976 213.426L-247.303 210.909C-208.764 203.062 -169.779 196.548 -130.647 191.514L-107.523 188.257L-95.5166 186.629L-83.2136 185L-82.7689 185.444V185.888L-81.1384 187.073L-76.988 191.218L-74.468 194.031L-71.207 198.177L-70.3176 199.361C-55.3465 230.896 -48.3797 237.262 -12.6565 244.221L-10.1365 245.109L-7.61662 245.553L-6.72728 245.997L-5.54142 246.442L-5.09675 246.886C-3.02154 248.218 -2.13216 248.366 -0.501635 250.143L-0.0569653 251.327L0.832419 252.216C3.20409 257.101 4.24172 262.283 5.72401 267.465L6.16868 270.278L7.79921 276.052C13.5802 300.925 39.6685 312.769 58.9383 325.797L74.6506 335.717L89.9182 346.081L104 356" stroke="#FFF3CF" stroke-width="0.75" stroke-miterlimit="10" stroke-linecap="round" stroke-linejoin="round"/>
<path d="M171 424.643L161.522 422.559C76.2238 405.585 -7.00162 419.581 -90.0789 441.171L-100.741 444L-110.219 440.724C-130.211 433.726 -157.755 416.454 -170.787 399.331L-187.669 373.721L-190.483 368.36L-193 363" stroke="#FFF3CF" stroke-width="0.75" stroke-miterlimit="10" stroke-linecap="round" stroke-linejoin="round"/>
<path d="M1908 848.636L1936.1 839.612L1943.98 836.801L1951.41 833.991L1964.2 829.109L1976.54 823.783H1977.43C2000.03 824.523 2016.69 845.826 2036.16 855.442L2041.96 857.956L2045.68 859.584L2049.84 860.767L2054 861.655L2058.17 862.838C2092.36 867.424 2108.57 858.696 2127.6 831.919L2129.68 829.405L2131.76 826.594L2135.93 822.008C2145.29 812.983 2149.31 808.693 2161.5 803.515L2165.66 802.332L2167.3 801.888L2168.49 801H2169.68L2170.87 800.557L2172.5 800.113L2174.14 799.669L2175.33 799.225L2176.52 798.781L2177.41 798.338L2179.04 797.894L2180.23 797.45L2181.13 797.006L2181.57 796.562L2182.46 796.119L2183.36 795.675L2183.8 795.231H2184.69L2185.14 794.787L2185.59 793.899L2187.22 792.272L2187.67 791.385V790.497C2189.15 788.722 2188.26 786.207 2188.11 784.284L2187.22 782.656L2186.78 781.473L2185.88 780.585L2184.99 780.141C2184.25 777.626 2181.13 778.07 2179.64 776.443L2178.45 775.999L2177.56 775.555C2169.38 773.188 2161.2 770.821 2152.73 769.046L2146.48 767.862L2144.4 766.975L2141.58 766.531L2138.75 765.643L2142.47 764.756C2177.71 759.43 2204.77 751.885 2239.56 761.945L2257.4 765.2L2254.87 766.827L2252.34 768.01L2250.71 769.194L2248.63 770.821L2246.99 772.449L2246.55 773.336L2246.1 773.78L2245.21 774.963L2244.02 777.478V778.366L2243.57 779.55V783.248L2244.02 784.136V784.579L2244.46 785.023V785.911L2245.36 787.538L2246.25 788.426L2247.14 790.053L2248.03 790.497C2258.14 800.852 2283.27 804.699 2296.06 811.06L2298.58 811.948L2297.69 812.835L2296.8 813.279L2295.91 814.167C2291.74 815.498 2288.18 818.309 2283.86 819.493L2283.42 819.936L2282.53 820.38L2280 822.008L2279.55 822.451L2278.66 822.895L2278.21 823.339L2277.32 823.783L2276.88 824.227V824.671L2276.43 825.114H2275.98L2275.54 825.558V826.446L2275.09 826.89C2273.75 828.813 2273.75 831.18 2273.9 833.399L2274.35 834.286V835.174L2274.79 836.062L2275.69 836.949L2276.13 838.133L2277.32 839.316L2278.21 839.76L2278.66 840.648L2279.55 841.092L2280.44 841.535L2280.89 841.979L2281.78 842.423H2282.23L2283.42 843.311C2299.77 848.636 2315.68 850.707 2331.44 858.104L2332.33 858.548L2333.23 858.992L2334.41 859.436C2336.79 860.767 2339.32 861.211 2341.85 861.507H2342.74L2343.63 861.063H2345.27L2346.16 860.619L2347.05 860.176L2347.94 859.732L2348.84 859.288L2349.28 858.844L2350.18 858.4L2353 855.589V855.146" stroke="#FFF3CF" stroke-width="0.75" stroke-miterlimit="10" stroke-linecap="round" stroke-linejoin="round"/>
<path d="M1744 847C1790.67 857.3 1834.07 865.393 1881.19 855.534L1889.04 853.916L1896.44 852.297L1904.3 850.237L1906.37 849.354L1908 848.913" stroke="#FFF3CF" stroke-width="0.75" stroke-miterlimit="10" stroke-linecap="round" stroke-linejoin="round"/>
<path d="M1607 830H1620.61L1634.22 830.455L1649.02 831.366L1664.26 832.58L1679.05 834.25L1693.85 836.83L1700.36 837.589L1707.01 838.955L1709.08 839.411L1710.71 839.714L1713.08 840.17L1716.04 840.625L1744 847" stroke="#FFF3CF" stroke-width="0.75" stroke-miterlimit="10" stroke-linecap="round" stroke-linejoin="round"/>
<path d="M1607 769L1609.51 769.446H1612.01L1639.89 771.824L1667.76 774.797L1689.88 776.878L1712 779.257L1639.44 802H1635.31L1621.3 801.703H1607" stroke="#FFF3CF" stroke-width="0.75" stroke-miterlimit="10" stroke-linecap="round" stroke-linejoin="round"/>
<path d="M1607.15 692L1610.82 694.098C1628.31 705.035 1643.89 717.321 1660.65 729.157L1668 735L1643.01 732.453L1618.46 730.355L1613.61 728.258L1609.06 726.16H1608.18L1607 725.711" stroke="#FFF3CF" stroke-width="0.75" stroke-miterlimit="10" stroke-linecap="round" stroke-linejoin="round"/>
<path d="M1878.6 661L1902.93 668.349L1903.82 668.79H1904.71C1941.79 679.667 1971.9 696.571 2005.72 714.209L2011.95 717.002L2021 721.853L2011.95 723.469L2003.35 725.527C1946.24 737.58 1893.14 746.693 1834.25 745.959H1812.59L1791.08 745.077L1763.05 743.46L1735.01 740.961L1721.37 739.785L1707.27 738.609L1697.34 730.378L1690.36 725.527L1683.84 720.236C1661.74 703.773 1640.97 688.487 1617.09 674.523L1608.78 669.966L1607.89 669.525L1607 668.643" stroke="#FFF3CF" stroke-width="0.75" stroke-miterlimit="10" stroke-linecap="round" stroke-linejoin="round"/>
<path d="M1607 594L1611.59 595.613L1615.74 597.227L1628.92 602.067C1660.61 613.947 1689.93 631.547 1722.36 640.787L1732.28 643.28C1770.19 651.787 1804.25 645.773 1842.61 653.84L1847.49 654.72L1854.9 656.333L1862.3 657.507L1878 660" stroke="#FFF3CF" stroke-width="0.75" stroke-miterlimit="10" stroke-linecap="round" stroke-linejoin="round"/>
<path d="M1728.88 579.808L1754.32 588.396L1755.21 588.84H1755.65L1763.05 590.913L1770 592.985L1776.21 594.614L1781.98 596.243L1787.75 598.316L1793.07 600.388C1803.13 603.794 1812.15 609.716 1820.14 616.379L1825.91 620.524L1831.68 625.41L1837 630L1826.65 628.371L1816.29 627.187C1783.01 624.67 1755.35 627.927 1722.52 616.823L1719.26 615.935L1713.05 613.417C1682.58 602.017 1654.92 585.583 1623.86 575.07L1615.58 571.813L1607 569" stroke="#FFF3CF" stroke-width="0.75" stroke-miterlimit="10" stroke-linecap="round" stroke-linejoin="round"/>
<path d="M1610 552.333C1648.83 546.624 1687.21 560.091 1721.59 576.779L1728.56 579.561V580H1729" stroke="#FFF3CF" stroke-width="0.75" stroke-miterlimit="10" stroke-linecap="round" stroke-linejoin="round"/>
<path d="M1607 462.395L1630.04 461.196L1653.08 459.548L1669.03 458.649L1684.68 457.45H1687.49L1690 457L1623.39 510.801L1616.01 511.101L1609.07 512H1607.44V511.55H1607" stroke="#FFF3CF" stroke-width="0.75" stroke-miterlimit="10" stroke-linecap="round" stroke-linejoin="round"/>
<path d="M1689.78 398.943L1722.59 395.646L1755.85 392.798L1764.43 391.899L1773 391L1713.87 438.507C1685.79 440.905 1657.7 442.553 1629.62 444.352L1607 446" stroke="#FFF3CF" stroke-width="0.75" stroke-miterlimit="10" stroke-linecap="round" stroke-linejoin="round"/>
<path d="M1607 407L1616.95 406.04L1631.35 404.76L1645.75 403.48L1653.33 402.52L1661.05 402.04L1690 399" stroke="#FFF3CF" stroke-width="0.75" stroke-miterlimit="10" stroke-linecap="round" stroke-linejoin="round"/>
<path d="M1687 371L1658.11 373.38L1650.7 374.08L1643.3 374.92L1628.93 376.04L1614.41 377.3L1610.7 377.58L1607 378" stroke="#FFF3CF" stroke-width="0.75" stroke-miterlimit="10" stroke-linecap="round" stroke-linejoin="round"/>
<path d="M1797 361L1790.33 361.448L1784.25 361.896L1778.47 362.791L1772.69 363.09L1763.2 363.985L1753.71 364.731L1720.36 367.716L1687 371" stroke="#FFF3CF" stroke-width="0.75" stroke-miterlimit="10" stroke-linecap="round" stroke-linejoin="round"/>
<path d="M1607 301L1619.31 304.722C1675.97 321.993 1732.48 335.094 1787.95 357.278L1797 361" stroke="#FFF3CF" stroke-width="0.75" stroke-miterlimit="10" stroke-linecap="round" stroke-linejoin="round"/>
<path d="M1607 112L1608.65 116.599C1611.94 134.254 1628.24 146.864 1620.76 165.26L1618.67 169.859L1614.93 179.799L1613.73 184.695L1612.83 189.591V192.113L1614.03 199.531C1618.67 215.553 1628.39 226.977 1631.98 241.961L1636.62 255.609L1639.46 263.027L1642 270L1636.17 268.368L1630.33 266.291" stroke="#FFF3CF" stroke-width="0.75" stroke-miterlimit="10" stroke-linecap="round" stroke-linejoin="round"/>
<path d="M1607 -15L1613.99 -12.4896C1647.17 0.505613 1681.98 8.77528 1716.2 18.6693L1722 20.2937L1607 77" stroke="#FFF3CF" stroke-width="0.75" stroke-miterlimit="10" stroke-linecap="round" stroke-linejoin="round"/>
<path d="M2451 -133L2429.93 -115.695L2425.03 -111.554L2420.13 -107.857L2417.31 -105.342C2411.08 -99.8698 2404.84 -92.7704 2399.21 -87.5938L2396.68 -85.0795L2395.5 -84.1921L2394.6 -83.7483L2393.71 -82.8609L2392.82 -82.4172L2391.93 -81.9735L2390.75 -81.5298L2389.86 -81.0861L2388.67 -80.6424L2387.48 -80.1987L2385.85 -79.3113L2384.22 -78.8676L2383.03 -78.4238C2368.93 -72.3598 2355.72 -66.5916 2342.22 -59.0486L2331.83 -53.7241L2330.64 -53.2804L2329.75 -52.8366L2321.14 -48.2517L2312.09 -44.1104L2301.4 -39.5254L2291.02 -34.9404C2271.13 -26.0662 2249.76 -22.5166 2228.68 -17.6358L2220.37 -16.4525L2211.77 -15.2693C2172.44 -13.9382 2130.73 -0.922735 2094.23 -22.2207L2080.13 -27.989L2076.86 -29.6159L2074.04 -30.7991L2069.89 -32.8698C2016.61 -62.894 1955.17 -71.9161 1901.15 -99.8698L1892.54 -104.751L1887.94 -107.265L1883.78 -110.075C1871.61 -116.287 1861.08 -125.901 1850.84 -131.521L1848.02 -132.408L1845.94 -132.852C1838.07 -133.148 1831.39 -127.971 1830.65 -120.132L1830.21 -118.062L1830.65 -115.547L1831.1 -113.477L1831.99 -111.406L1833.17 -109.779L1832.73 -109.336V-110.075L1832.28 -109.631C1826.94 -101.645 1808.98 -93.8057 1799.63 -93.6578H1795.92L1793.85 -93.2141C1789.69 -92.9183 1785.24 -93.9536 1781.53 -92.0309H1780.64L1779.75 -91.5872C1776.93 -89.5166 1773.81 -86.7064 1773.51 -83.0088V-77.5364C1775 -71.7682 1776.78 -68.9581 1779.75 -63.9294L1781.83 -60.6755L1784.35 -57.8653C1787.91 -53.1325 1791.18 -49.7307 1794.74 -44.702L1795.63 -42.1876L1796.52 -41.0044C1801.27 -23.2561 1793.85 -9.50111 1777.52 -1.07064L1775.44 0.112583L1774.55 0.556296L1774.11 0.999998L1770.4 -0.626931C1719.79 -18.5232 1669.33 -27.6932 1619.02 -47.5121L1607 -52.0971" stroke="#FFF3CF" stroke-width="0.75" stroke-miterlimit="10" stroke-linecap="round" stroke-linejoin="round"/>
<path d="M2319.21 54.8772L2290.69 52.3514H2289.06L2283.27 51.46C2260.4 47.597 2240.64 42.3968 2218.81 34.0765L2207.23 29.4706L2196.09 24.8648L2185.4 19.9617L2175 15.0587L2177.52 14.613H2180.35L2182.87 14.1673H2185.4C2206.63 12.3843 2223.42 11.6415 2244.5 6.73843L2247.03 5.84698L2249.85 5.40124C2258.17 2.72687 2267.08 1.68683 2275.4 -0.838966L2276.58 -1.73042H2277.48L2282.82 -3.8105L2288.61 -5.44484L2313.42 -15.3995L2321.73 -19.1139L2329.6 -22.8283L2332.87 -24.0169L2335.69 -25.6512L2341.49 -28.4742L2346.83 -31L2348.47 -30.5543L2350.1 -30.1085L2355.89 -28.4742L2360.05 -25.9484C2368.66 -19.7082 2371.04 -10.3479 2376.53 -2.02758L2377.43 0.0524904L2379.06 2.87545L2380.25 5.6984L2383.07 10.3043L2385.89 14.4644C2410.25 55.4715 2475.74 69.8835 2516.73 88.4555L2523.27 91.7242L2525.79 93.3585L2528.61 94.9929L2531.44 97.0729L2536.34 101.233L2537.97 103.759L2539.16 105.393L2540.05 106.582L2541.24 109.108V109.999L2542.13 111.633L2543.76 115.794L2544.21 117.428L2550 136" stroke="#FFF3CF" stroke-width="0.75" stroke-miterlimit="10" stroke-linecap="round" stroke-linejoin="round"/>
<path d="M2454 90L2452.81 89.1026L2451.17 87.906L2447 85.0641L2444.92 83.4188C2428.55 72.7992 2411.43 62.4786 2392.38 57.6923L2388.21 56.7949L2384.04 55.8974L2379.88 55.4487L2371.54 55H2363.21C2350.85 55.5983 2338.35 55.2991 2326 55.4487H2322.72L2319 55" stroke="#FFF3CF" stroke-width="0.75" stroke-miterlimit="10" stroke-linecap="round" stroke-linejoin="round"/>
<path d="M2315 85L2321.26 85.9081H2324.55L2327.83 86.3622H2328.72C2353.48 89.8432 2379.73 83.6378 2403.29 93.4757L2407.47 94.6865L2411.2 96.8054L2415.37 98.4703L2419.1 101.043L2423.28 103.162L2427.01 105.735L2430.74 108.611L2434.91 111.184L2435.81 112.092L2437 113" stroke="#FFF3CF" stroke-width="0.75" stroke-miterlimit="10" stroke-linecap="round" stroke-linejoin="round"/>
<path d="M2292.97 180L2291.34 179.555L2289.71 179.109C2263.11 172.133 2238.3 165.157 2212.01 156.399L2187.2 147.79L2168.63 141.556L2150.51 135.322V133.689L2150.06 132.057V130.424C2150.95 117.956 2153.48 104.448 2147.24 92.8707L2145.61 90.0505L2143.97 87.5272C2129.71 69.5669 2108.17 59.3252 2088.26 48.7865L2076.68 42.2555L2070.88 39.4353L2064.35 36.6151L2058.11 34.0918C2053.35 31.8653 2048.3 30.5295 2043.7 28.303L2042.06 27.8577L2040.87 26.9671L2039.69 26.5218L2038.5 26.0765L2037.31 25.1859L2036.12 24.7406L2035.23 24.2953L2034.34 23.4047H2033.89L2033 22.5142V22.0689L2033.45 21.6236V21.1783L2033.89 20.2877V19.8424L2034.78 18.2096L2035.23 17.0222L2036.12 15.3894C2039.09 9.30374 2041.17 4.55393 2043.55 -1.53176L2043.99 -3.60979L2044.88 -6.13314L2045.78 -9.84392L2046.22 -14L2056.92 -9.10177L2060.19 -7.46902C2120.95 17.0222 2172.79 50.4193 2234.89 69.2701L2247.66 72.9809L2254.2 74.6136L2272.77 78.3244L2279.31 79.5119L2283.02 79.9572L2286.73 80.8477L2316 85.0038" stroke="#FFF3CF" stroke-width="0.75" stroke-miterlimit="10" stroke-linecap="round" stroke-linejoin="round"/>
<path d="M2481 171L2477.74 171.903C2452.52 177.17 2420.92 175.966 2404.75 199.893L2403.86 202H2403.41L2402.97 201.549L2374.04 196.883L2345.55 191.466L2329.09 188.155L2325.82 187.252L2322.12 186.801L2292 179.728" stroke="#FFF3CF" stroke-width="0.75" stroke-miterlimit="10" stroke-linecap="round" stroke-linejoin="round"/>
<path d="M1811 389L1829.5 387.35L1848 386" stroke="#FFF3CF" stroke-width="0.75" stroke-miterlimit="10" stroke-linecap="round" stroke-linejoin="round"/>
<path d="M1896.41 404.05L1908 409.047L1897.6 411.621C1854.97 420.707 1812.2 429.338 1768.82 433.88L1751 436L1810.41 388" stroke="#FFF3CF" stroke-width="0.75" stroke-miterlimit="10" stroke-linecap="round" stroke-linejoin="round"/>
<path d="M1848 385.445H1850.05L1851.66 385H1854.15L1865.41 390.047L1896 404" stroke="#FFF3CF" stroke-width="0.75" stroke-miterlimit="10" stroke-linecap="round" stroke-linejoin="round"/>
<path d="M2237.33 562L2252.17 568.783L2267 576L2254.98 575.567C2188.53 573.113 2121.47 571.526 2055.02 572.392L2043 572.825" stroke="#FFF3CF" stroke-width="0.75" stroke-miterlimit="10" stroke-linecap="round" stroke-linejoin="round"/>
<path d="M1761.14 567L1736.36 558.635L1732.2 556.544L1727.6 554.901L1721.37 552.063L1715.13 549.524L1710.23 546.985L1705.34 544.894L1704.89 544.446H1704L1721.81 543.251L1739.62 541.608L1779.7 538.77C1824.37 535.484 1868.9 530.405 1913.43 525.924L1945.64 522.638L2002.63 516.813L2024.16 514.722L2045.68 513.079L2086.05 510.539L2126.13 508L2127.76 508.896L2129.84 509.792L2169.47 528.911L2174.07 531.451L2178.97 533.542L2181.79 535.185L2184.61 536.38L2188.32 538.023L2196.63 542.205L2200.34 543.848L2206.87 547.134L2237 561.623" stroke="#FFF3CF" stroke-width="0.75" stroke-miterlimit="10" stroke-linecap="round" stroke-linejoin="round"/>
<path d="M2043 572.654L2001.8 575.183L1989.79 576.374C1943.55 580.837 1894.5 591.104 1848.11 587.086L1840.7 586.64L1833.29 585.45L1827.95 584.557L1822.62 583.367L1817.28 581.73L1811.5 580.54L1809.87 580.093H1806.17L1804.54 580.54L1800.83 578.903L1796.68 577.266L1791.79 575.63L1787.2 574.439L1782.6 572.803L1777.71 571.612L1769.85 569.529L1762 567" stroke="#FFF3CF" stroke-width="0.75" stroke-miterlimit="10" stroke-linecap="round" stroke-linejoin="round"/>
<path d="M2224.62 511C2218.84 508.777 2212.03 505.071 2206.11 502.403L2202.4 500.773L2199.59 499.143L2196.77 497.957L2191 495.141L2185.67 492.621L2185.22 492.177C2183 486.693 2179.15 471.426 2179.44 465.053L2179 460.903V456.753C2179.89 450.676 2179.59 445.192 2182.26 439.412L2183.15 436.596L2184.33 433.779L2185.96 430.519C2200.63 403.988 2229.95 391.093 2256.32 379.384L2268.61 374.048L2280.91 369.157L2298.68 362.191L2316.45 355.225L2322.97 352.409L2329.49 349.889L2331.12 349L2335.26 350.186L2339.41 351.075L2360 355.966" stroke="#FFF3CF" stroke-width="0.75" stroke-miterlimit="10" stroke-linecap="round" stroke-linejoin="round"/>
<path d="M2330 561L2322.58 557.746L2315.61 554.047L2312.35 552.864L2308.64 551.237C2302.27 547.538 2295.15 545.024 2288.47 541.325L2285.21 539.698L2270.38 532.746L2255.11 525.349L2225 511" stroke="#FFF3CF" stroke-width="0.75" stroke-miterlimit="10" stroke-linecap="round" stroke-linejoin="round"/>
<path d="M1630 85L1713 43" stroke="#FFF3CF" stroke-width="0.75" stroke-miterlimit="10" stroke-linecap="round" stroke-linejoin="round"/>
<path d="M1713.12 43.0859L1720.09 39.8239L1734.91 34.0413L1742.32 31.5206L1747.21 29.8896L1748.84 29.4448L1750.47 29L1753.29 29.8896L1755.81 30.7793L1758.33 31.6689L1760.4 32.5586L1765 34.1896L1769.15 36.2654L1772.85 38.3412L1781.16 44.1238C1798.35 56.2822 1810.06 68.8854 1830.22 77.0405L1836 79.5611L1834.81 81.1921L1833.63 82.3783C1813.17 108.03 1787.08 115.74 1755.81 110.402L1754.18 109.957L1750.03 108.326C1713.71 94.685 1674.28 96.0194 1637.08 85.6403L1633.82 85.1955L1631 84.3058" stroke="#FFF3CF" stroke-width="0.75" stroke-miterlimit="10" stroke-linecap="round" stroke-linejoin="round"/>
<path d="M2274 659L2301.63 659.893C2322.42 660.042 2343.22 660.637 2364.02 661.083H2389.56L2416.01 661.529H2442V663.166C2440.81 692.475 2415.71 711.667 2401.6 735.174L2397.88 740.53H2390.01C2372.63 741.869 2353.32 740.084 2335.94 738.447L2329.41 737.555" stroke="#FFF3CF" stroke-width="0.75" stroke-miterlimit="10" stroke-linecap="round" stroke-linejoin="round"/>
<path d="M1885.84 636.919L1885.39 636.465H1884.95L1882.12 634.801L1879.6 633.138L1875 630.567L1870.84 627.693L1866.24 624.366L1862.09 621.038L1859.27 618.467L1856 615.896L1865.05 616.35H1873.66L1885.24 615.896C1915.52 612.115 1946.1 614.686 1976.38 617.56L1986.33 618.77L1996.27 620.433C2044.07 627.542 2089.64 644.33 2138.18 649.925L2150.2 651.135L2163.41 652.345L2176.18 653.555L2202.16 655.219L2229.32 656.883L2235.55 657.336L2274 659" stroke="#FFF3CF" stroke-width="0.75" stroke-miterlimit="10" stroke-linecap="round" stroke-linejoin="round"/>
<path d="M2116 708.92L2081.63 711.738L2070.48 712.924L2059.32 714.555L2058.87 715H2057.98L2045.93 708.772L2033.58 702.544L2024.95 697.947L2007.55 689.346C1981.21 675.852 1955.18 660.875 1926.91 651.829L1923.19 650.643L1909.95 646.49L1886 637" stroke="#FFF3CF" stroke-width="0.75" stroke-miterlimit="10" stroke-linecap="round" stroke-linejoin="round"/>
<path d="M2330 737L2318.43 735.827L2306.86 734.215L2288.77 730.99C2237.9 722.34 2187.19 710.173 2135.43 709H2116" stroke="#FFF3CF" stroke-width="0.75" stroke-miterlimit="10" stroke-linecap="round" stroke-linejoin="round"/>
</g>
<defs>
<clipPath id="clip0_730_425">
<rect width="2850" height="898" fill="white" transform="translate(-525)"/>
</clipPath>
</defs>
</svg>
